<?xml version="1.0" encoding="utf-8"?>
<!-- Generator: Adobe Illustrator 25.2.1, SVG Export Plug-In . SVG Version: 6.00 Build 0)  -->
<svg version="1.1" id="Layer_1" xmlns="http://www.w3.org/2000/svg" xmlns:xlink="http://www.w3.org/1999/xlink" x="0px" y="0px"
	 viewBox="0 0 519 180" style="enable-background:new 0 0 519 180;" xml:space="preserve">
<style type="text/css">
	.st0{fill:#294697;}
	.st1{fill:#FFFFFF;}
	.st2{fill:#294697;stroke:#294697;stroke-width:0.6503;stroke-miterlimit:10;}
</style>
<g>
	<g id="R76mJI_2_">
		<g>
			<path class="st0" d="M290.66,81.75c-1.74,0-3.43,0-5.16,0c0-0.32,0-0.57,0-0.91c6.52,0,13.06,0,19.65,0c0,0.27,0,0.53,0,0.85
				c-1.79,0-3.58,0-5.36,0c-0.3,1.48-0.4,33.88-0.14,40.48c2.78,0,5.56,0,8.44,0c0.45-1.52,1.14-3.05,1.76-4.6
				c0.57-1.41,1.19-2.79,1.75-4.21c0.58-1.46,1.24-2.89,1.81-4.35c0.56-1.47,1.07-2.98,1.74-4.38c1.01-2.11,1.8-4.3,2.7-6.45
				c0.87-2.1,1.75-4.21,2.56-6.35c0.58-1.55,1.29-3.08,1.93-4.63c0.45-1.08,0.82-2.18,1.31-3.24c0.49-1.06,0.93-2.14,1.32-3.24
				c0.23-0.67,0.66-1.27,0.99-1.9c0.54,0,1.02,0,1.55,0c0.57,1.34,1.12,2.7,1.72,4.05c0.47,1.07,1.12,2.07,1.45,3.18
				c0.32,1.08,0.97,2,1.25,3.11c0.3,1.21,1.1,2.28,1.55,3.46c0.84,2.18,1.99,4.21,2.73,6.44c0.44,1.34,1.3,2.53,1.81,3.85
				c0.76,1.99,1.68,3.91,2.45,5.9c0.41,1.07,0.9,2.15,1.41,3.2c0.53,1.09,1.07,2.19,1.48,3.33c0.41,1.15,1.03,2.2,1.38,3.38
				c0.36,1.2,1.1,2.28,1.69,3.45c2.66,0,5.33,0,8.07,0c0-13.45,0-26.9,0-40.42c-1.82,0-3.62,0-5.47,0c0-0.31,0-0.57,0-0.89
				c0.16-0.17,10.4-0.24,14.39-0.04c1.55,2.33,3.02,4.78,4.73,7.04c1.23,1.62,2.4,3.29,3.54,4.97c1.87,2.73,3.82,5.41,5.66,8.17
				c1.49,2.24,3.17,4.37,4.62,6.65c0.18,0.29,0.49,0.5,0.85,0.87c0-9.01,0-17.82,0-26.75c-1.7,0-3.42,0-5.18,0c0-0.37,0-0.63,0-0.95
				c4.03,0,8.06,0,12.24,0c-0.19,0.36-0.32,0.61-0.48,0.9c-1.71,0-3.4,0-5.2,0c0,13.84,0,27.63,0,41.45c-0.65,0-1.19,0-1.95,0
				c-0.5-0.72-1.08-1.57-1.67-2.41c-1.31-1.87-2.67-3.71-3.95-5.61c-1.65-2.45-3.37-4.85-5.05-7.27c-1.53-2.22-3.09-4.43-4.65-6.63
				c-1.53-2.16-2.96-4.39-4.55-6.5c-1.61-2.13-2.99-4.41-4.7-6.47c-0.74-0.89-1.28-1.96-2.06-3.19c0,12.55,0,24.8,0,37.11
				c1.71,0,3.39,0,5.09,0c0.18,0.29,0.34,0.55,0.58,0.93c-10.11,0-20.06,0-30.05,0c0-0.26,0-0.52,0-0.89c1.82,0,3.65,0,5.54,0
				c-0.92-1.88-1.59-3.73-2.42-5.5c-0.97-2.07-1.76-4.21-2.78-6.26c-0.55-1.11-1.23-2.24-1.39-3.54c-0.02-0.17-0.28-0.32-0.43-0.49
				c-4.64,0-9.29,0-14.02,0c-2.16,5.22-4.33,10.45-6.51,15.72c1.67,0,3.36,0,5.15,0c0.02,0.35,0.03,0.65,0.05,0.99
				c-9.67,0-19.25,0-28.9,0c0-0.25,0-0.51,0-0.84c-0.03,0.04,0-0.04,0.04-0.04c1.68-0.01,3.37-0.01,5.11-0.01
				C290.66,108.76,290.66,95.34,290.66,81.75z M329.52,105.4c-0.66-1.42-1.43-2.74-1.91-4.16c-0.67-1.98-1.64-3.82-2.36-5.77
				c-0.59-1.61-1.51-3.1-2.04-4.75c-0.1-0.3-0.35-0.55-0.63-0.98c-2.2,5.36-4.32,10.51-6.43,15.65
				C320.64,105.4,325.06,105.4,329.52,105.4z"/>
			<path class="st0" d="M171.66,78.83c0.52,0,1,0,1.47,0c0.16,0.17,0.37,0.3,0.44,0.49c0.87,2.44,2.22,4.67,2.99,7.15
				c0.28,0.91,0.83,1.74,1.22,2.62c0.98,2.17,2.01,4.32,2.89,6.53c1.02,2.54,2.23,5,3.25,7.54c1.03,2.54,2.21,5.01,3.28,7.53
				c1.09,2.57,2.18,5.13,3.32,7.67c0.56,1.24,1.27,2.44,1.51,3.83c2.73,0,5.4,0,8.13,0c0-13.42,0-26.84,0-40.42
				c-0.78-0.05-1.64-0.01-2.49-0.02c-0.87-0.01-1.74,0-2.63,0c-0.17-0.29-0.32-0.55-0.54-0.92c5.35,0,10.54,0,15.81,0
				c0.77,1.46,1.15,3.16,1.69,4.78c0.47,1.39,0.95,2.8,1.43,4.19c0.48,1.39,0.95,2.78,1.45,4.17c1.08,3.01,2,6.08,3.14,9.07
				c0.76,2,1.39,4.03,2.11,6.03c0.1,0.29,0.17,0.59,0.29,1.05c0.21-0.29,0.44-0.48,0.52-0.72c0.61-1.83,1.13-3.68,1.93-5.46
				c0.43-0.95,0.68-2.01,1.03-3.03c0.41-1.2,0.89-2.38,1.3-3.57c0.42-1.2,0.83-2.4,1.27-3.59c0.52-1.37,0.86-2.82,1.41-4.19
				c0.9-2.26,1.46-4.65,2.48-6.87c0.25-0.55,0.36-1.17,0.57-1.85c5.03,0,10.16,0,15.43,0c-0.15,0.31-0.27,0.57-0.4,0.85
				c-1.72,0-3.41,0-5.17,0c0,13.52,0,26.98,0,40.49c1.67,0,3.36,0,5.05,0c0.19,0.29,0.37,0.54,0.52,0.78
				c-0.28,0.3-15.4,0.39-19.76,0.18c0-0.26,0-0.51,0-0.89c1.68,0,3.41,0,5.14,0c0-13.36,0-26.6,0-39.92
				c-1.26,2.44-1.75,5.05-2.81,7.47c-0.72,1.66-1.06,3.5-1.74,5.2c-0.91,2.26-1.49,4.63-2.48,6.87c-0.61,1.39-0.9,2.92-1.47,4.33
				c-0.92,2.26-1.49,4.64-2.48,6.87c-0.62,1.38-0.95,2.89-1.45,4.33c-0.67,1.92-1.37,3.82-2.07,5.76c-0.36,0-0.73,0-1.22,0
				c-0.32-0.82-0.7-1.66-0.98-2.52c-0.39-1.21-0.88-2.38-1.3-3.58c-0.42-1.2-0.81-2.4-1.28-3.58c-0.52-1.31-0.87-2.7-1.37-4.04
				c-0.44-1.19-0.88-2.38-1.3-3.57c-0.42-1.2-0.76-2.41-1.28-3.58c-0.42-0.95-0.68-2.02-1.03-3.03c-0.42-1.2-0.9-2.38-1.31-3.57
				c-0.41-1.2-0.82-2.4-1.27-3.59c-0.52-1.37-0.91-2.8-1.39-4.2c-0.68-1.96-1.39-3.9-2.22-5.82c0,13.35,0,26.7,0,40.11
				c1.8,0,3.6,0,5.45,0c0,0.31,0,0.57,0,0.9c-0.14,0.17-24.3,0.27-29.5,0.05c0-0.26,0-0.51,0-0.89c1.67,0,3.4,0,5.33,0
				c-0.18-0.38-0.28-0.59-0.37-0.79c-0.54-1.2-1.26-2.36-1.58-3.62c-0.34-1.31-1.24-2.33-1.5-3.68c-0.17-0.91-0.83-1.73-1.22-2.61
				c-0.73-1.67-1.41-3.36-2.14-5.1c-4.72,0-9.47,0-14.18,0c-1.1,2.62-2.22,5.23-3.3,7.85c-1.06,2.57-2.1,5.16-3.2,7.86
				c1.68,0,3.3,0,4.95,0c0,0.37,0,0.63,0,0.96c-3.68,0-7.38,0-11.11,0c0-0.29,0-0.55,0-0.86c1.59,0,3.16,0,4.85,0
				c0.2-0.48,0.42-0.94,0.58-1.42c0.42-1.25,0.97-2.46,1.49-3.66c1.33-3.07,2.59-6.17,3.84-9.27c0.47-1.17,1.04-2.31,1.43-3.52
				c0.37-1.15,0.82-2.31,1.33-3.39c0.73-1.52,1.31-3.08,1.93-4.63c0.54-1.37,1.21-2.68,1.72-4.06c0.52-1.38,1.06-2.75,1.62-4.1
				c0.58-1.4,1.17-2.8,1.77-4.2C170.22,82.31,170.93,80.58,171.66,78.83z M168.48,89.53c-2.2,5.35-4.33,10.55-6.47,15.77
				c2.01,0.27,12.16,0.21,13.18-0.06c-0.24-0.67-0.39-1.38-0.73-2c-1.36-2.5-2.28-5.2-3.46-7.78
				C170.14,93.58,169.37,91.64,168.48,89.53z"/>
			<path class="st0" d="M252.49,81.75c-1.74,0-3.43,0-5.16,0c0-0.32,0-0.57,0-0.85c0.06-0.03,0.14-0.12,0.23-0.12
				c3.29-0.01,6.6,0.24,9.86-0.08c3.2-0.31,6.39-0.08,9.57-0.29c1.21-0.08,2.3,0.43,3.49,0.38c1.09-0.05,2.07,0.67,3.18,0.64
				c2.66,1.25,5.22,2.64,6.5,5.5c0.35,0.78,0.61,1.67,0.64,2.52c0.03,0.88,0.37,1.84-0.27,2.67c0.05,1.6-0.99,2.57-1.97,3.63
				c-2.13,2.32-4.87,3.44-7.84,4.12c-0.65,0.15-1.3,0.31-2.12,0.51c0.37,0.06,0.61,0.13,0.86,0.14c2.78,0.08,5.43,0.79,7.88,2.01
				c2.61,1.3,4.46,3.39,5.33,6.25c0.22,0.72,0.15,5.21-0.07,5.94c-0.64,2.11-1.85,3.74-3.68,5.06c-1.53,1.1-3.14,1.92-4.89,2.53
				c-0.83,0.29-1.66,0.51-2.54,0.63c-0.61,0.08-1.21,0.42-1.84,0.28c-0.74-0.16-1.32,0.35-2.01,0.34c-0.66,0-1.32,0-1.97,0
				c-0.71,0-1.43,0-2.14,0c-0.66,0-1.33,0.08-1.97-0.01c-4.71-0.7-9.45-0.07-14.23-0.38c0-0.22,0-0.48,0-0.86
				c1.64-0.16,3.37,0.01,5.14-0.08C252.49,108.76,252.49,95.35,252.49,81.75z M261.44,122.16c0.47,0.15,0.85,0.37,1.24,0.39
				c1.15,0.05,2.3,0.07,3.45,0c0.72-0.04,1.46-0.16,2.12-0.42c2.58-1,3.79-3.1,4.35-5.66c0.18-0.82,0.28-1.66,0.33-2.49
				c0.06-0.93,0.02-1.86,0.01-2.8c-0.02-1.39,0.02-2.76-0.3-4.15c-0.52-2.24-1.87-3.83-3.59-5.2c-0.16-0.13-0.34-0.26-0.53-0.3
				c-1.16-0.24-2.32-0.54-3.5-0.67c-1.03-0.11-2.08-0.02-3.1-0.02c-0.17,0.17-0.32,0.32-0.49,0.49
				C261.44,108.23,261.44,115.14,261.44,122.16z M261.47,99.86c1.45,0,2.86,0.02,4.27-0.02c0.34-0.01,0.67-0.27,1.02-0.3
				c1.82-0.17,3.78-1.65,4.46-4.07c0.27-0.95,0.34-1.96,0.4-2.96c0.12-2.13-0.15-4.22-0.64-6.3c-0.57-2.42-1.92-3.81-4.42-4.49
				c-1.07-0.29-2.1-0.24-3.16-0.3c-0.7-0.04-1.36,0.05-1.94,0.46C261.47,87.85,261.47,93.81,261.47,99.86z"/>
			<path class="st0" d="M436.11,81.75c-1.85,0-3.64,0-5.49,0c0-0.31,0-0.57,0-0.91c11.88,0,23.81,0,35.77,0c0,3.33,0,6.66,0,10.06
				c-0.23,0-0.49,0-0.84,0c-0.34-0.84-0.64-1.81-1.1-2.7c-0.67-1.3-1.45-2.55-2.53-3.55c-1.11-1.02-2.36-1.87-3.76-2.42
				c-0.71-0.28-1.51-0.44-2.28-0.45c-3.56-0.05-7.12-0.02-10.75-0.02c0,6.02,0,12.02,0,18.1c1.53,0,3.06,0.07,4.58-0.02
				c1.34-0.08,2.6-0.66,3.7-1.35c0.77-0.48,1.37-1.35,1.81-2.17c0.77-1.43,1.45-2.92,1.68-4.57c0.09-0.67,0.51-0.9,1.23-0.73
				c0,6.17,0,12.39,0,18.66c-0.35,0-0.72,0-1.04,0c-0.44-1.39-0.85-2.81-1.33-4.21c-0.53-1.54-1.83-2.47-2.91-3.55
				c-0.23-0.23-0.63-0.31-0.97-0.41c-1.31-0.37-2.6-0.78-4-0.68c-0.87,0.06-1.75,0.01-2.63,0.01c-0.28,1.35-0.37,15.15-0.14,21.39
				c0.8,0,1.61,0,2.41,0c2.69,0,5.37,0.04,8.06-0.01c2.98-0.05,5.5-1.26,7.71-3.23c1.13-1.01,1.96-2.25,2.74-3.49
				c0.66-1.05,0.96-2.34,1.4-3.52c0.14-0.38,0.25-0.78,0.33-1.18c0.14-0.67,0.57-0.83,1.25-0.71c0,4.34,0,8.7,0,13.09
				c-12.78,0-25.54,0-38.37,0c0-0.25,0-0.51,0-0.84c-0.03,0.04,0-0.04,0.04-0.04c1.79-0.01,3.59-0.01,5.44-0.01
				C436.11,108.76,436.11,95.35,436.11,81.75z"/>
			<path class="st0" d="M427.88,123.19c-0.42,0-0.79,0-1.07,0c-0.23-0.37-0.43-0.67-0.59-0.93c-1.89-0.16-3.58,0.26-5.31,0.84
				c-1.3,0.44-2.7,0.74-4.12,0.8c-0.45,0.02-0.89,0.25-1.35,0.3c-0.49,0.06-0.99,0.05-1.48,0c-0.96-0.08-1.92,0.19-2.88-0.2
				c-0.87-0.36-1.86,0.01-2.79-0.42c-0.82-0.39-1.78-0.45-2.64-0.78c-0.85-0.33-1.63-0.82-2.45-1.23c-1.79-0.89-3.41-2.01-4.84-3.41
				c-1.34-1.31-2.66-2.63-3.61-4.26c-1.3-2.25-2.55-4.51-3.08-7.13c-0.14-0.68-0.21-1.34-0.29-2.01c-0.12-1.05-0.53-2.1-0.3-3.15
				c0.39-1.83,0.37-3.71,0.89-5.54c0.49-1.75,1.29-3.34,2.12-4.88c0.58-1.07,1.34-2.12,2.21-3.06c0.61-0.65,1.12-1.42,1.78-2.04
				c2.26-2.1,4.83-3.81,7.66-4.94c2.3-0.91,4.75-1.65,7.33-1.39c0.54,0.06,1.1,0.04,1.64,0c1.77-0.14,3.39,0.45,5.06,0.88
				c1.29,0.34,2.55,0.74,3.83,1.07c0.67,0.17,1.42,0.03,2.21,0.03c0.18-0.25,0.38-0.54,0.65-0.93c0.23,0,0.6,0,1.04,0
				c0,3.98,0,8.01,0,12.03c-1.01,0-0.99,0-1.24-0.73c-0.77-2.21-1.56-4.41-2.95-6.35c-1.48-2.07-3.37-3.61-5.7-4.58
				c-0.56-0.23-1.19-0.38-1.8-0.4c-1.59-0.06-3.22-0.24-4.76,0.03c-2.61,0.47-5.06,1.32-6.64,3.8c-0.62,0.96-1.29,1.83-1.61,2.97
				c-0.31,1.08-0.74,2.11-0.94,3.24c-0.17,0.9-0.09,1.82-0.32,2.66c-0.24,0.85-0.27,1.66-0.28,2.51c-0.01,0.93-0.08,1.87,0.02,2.79
				c0.11,1.09-0.37,2.1-0.33,3.16c0.04,1.22,0.25,2.43,0.3,3.65c0.05,1.2-0.15,2.44,0.07,3.61c0.15,0.84,0.03,1.76,0.34,2.48
				c0.34,0.79,0.23,1.62,0.53,2.41c0.28,0.74,0.46,1.56,0.73,2.33c0.78,2.27,1.99,4.28,4.15,5.45c0.96,0.52,2.1,0.8,3.2,0.99
				c1.2,0.21,2.4,0.51,3.64,0.36c2.84-0.33,5.45-1.14,7.55-3.23c1.58-1.57,3.06-3.21,3.93-5.29c0.47-1.12,0.9-2.27,1.19-3.45
				c0.19-0.77,0.54-0.96,1.29-0.82C427.88,114.64,427.88,118.85,427.88,123.19z"/>
			<path class="st0" d="M239.02,69.5c0-2.32,0-4.34,0-6.42c0.79,0,1.52,0,2.3,0c0,3.33,0,6.66,0,10.05c-0.89,0-1.8,0-2.83,0
				c-1.11-1.98-2.28-4.07-3.62-6.45c-0.15,1.28-0.07,2.27-0.08,3.25c-0.02,1.04,0,2.08,0,3.19c-0.75,0-1.48,0-2.26,0
				c0-3.33,0-6.66,0-10.05c0.89,0,1.8,0,2.87,0C236.64,64.95,237.79,67.05,239.02,69.5z"/>
			<path class="st0" d="M267.62,73.18c-1.29,0-2.2,0-3.05,0c-0.76-1.23-1.49-2.41-2.2-3.55c-0.45,0-0.82,0-1.24,0
				c0,1.06,0,2.09,0,3.05c-0.21,0.22-0.37,0.37-0.52,0.53c-0.66,0-1.32,0-2.06,0c0-3.37,0-6.73,0-10.22
				c2.22,0.12,4.48-0.26,6.78,0.47c0.38,0.38,0.85,0.85,1.32,1.32c0.04,0.36,0.05,0.73,0.12,1.1c0.03,0.13,0.18,0.24,0.22,0.28
				c-0.14,0.59-0.25,1.09-0.4,1.74c-0.43,0.41-0.98,0.95-1.49,1.44C265.91,70.56,266.69,71.76,267.62,73.18z M261.19,65.31
				c0,0.77,0,1.53,0,2.3c1.78,0.01,1.78,0.01,2.83-0.77c0.01-0.93,0.01-0.93-0.48-1.53C262.78,65.31,262.03,65.31,261.19,65.31z"/>
			<path class="st0" d="M276.18,65.32c-1.63,0-3.21,0-4.83,0c0,0.53,0,1.01,0,1.61c1.25,0,2.54,0,3.86,0c0,0.81,0,1.51,0,2.27
				c-1.24,0-2.49,0-3.85,0c-0.03,0.57-0.05,1.08-0.08,1.66c1.75,0,3.44,0,5.2,0c0,0.79,0,1.53,0,2.31c-2.56,0-5.12,0-7.75,0
				c0-3.35,0-6.72,0-10.12c2.48,0,4.93,0,7.44,0C276.18,63.74,276.18,64.44,276.18,65.32z"/>
			<path class="st0" d="M208.13,63.04c0.92,0,1.73,0,2.59,0c0,2.26,0,4.49,0,6.56c0.29,0.5,0.5,0.85,0.74,1.25c0.7,0,1.4,0,2.23,0
				c0.49-0.7,0.65-1.63,0.68-2.55c0.06-1.74,0.02-3.48,0.02-5.25c0.9,0,1.71,0,2.63,0c0,2.24,0.13,4.48-0.05,6.69
				c-0.1,1.25-0.6,2.53-2.01,3.07c-0.24,0.09-0.47,0.19-0.69,0.48c-1.43-0.09-2.85-0.18-4.27-0.27c-0.69-0.78-1.32-1.49-1.87-2.12
				C208.13,68.21,208.13,65.69,208.13,63.04z"/>
			<path class="st0" d="M252.73,73.17c-1.08,0-1.89,0-2.84,0c-0.24-0.69-0.48-1.4-0.76-2.21c-0.92,0-1.94,0-3.16,0
				c-0.24,0.63-0.52,1.38-0.83,2.2c-0.7,0-1.51,0-2.37,0c-0.35-0.79,0.16-1.5,0.37-2.2c0.75-2.47,1.87-4.81,2.52-7.32
				c0.06-0.24,0.29-0.43,0.44-0.63c1.01,0,1.99,0,3.07,0C250.32,66.31,251.49,69.65,252.73,73.17z M246.6,68.86
				c0.68,0.1,1.34,0.13,1.95-0.01c-0.37-1.02-0.7-1.96-1.1-3.05C247.15,66.9,246.89,67.83,246.6,68.86z"/>
			<path class="st0" d="M206.09,64.15c0.25,0.51,0.52,1.06,0.82,1.68c-0.88,0.31-1.68,0.6-2.5,0.9c-0.19-0.47-0.26-0.93-0.52-1.18
				c-0.27-0.26-0.73-0.31-1.17-0.47c-0.91,0.2-1.78,0.56-2.12,1.64c0,0.87,0,1.74,0,2.71c0.29,0.42,0.65,0.94,1,1.43
				c0.77,0,1.46,0,2.28,0c0.14-0.36,0.28-0.74,0.46-1.21c0.8-0.42,1.59,0.23,2.49,0.37c0.06,1.37-1.06,1.99-1.73,2.77
				c-1.72,0.57-3.38,0.57-5.08,0.01c-0.35-0.35-0.73-0.74-1.12-1.12c-0.87-0.84-1.21-1.92-1.28-3.08c-0.09-1.51,0.15-2.9,1.23-4.09
				c0.72-0.8,1.74-1.49,2.8-1.52c0.87-0.02,1.75,0,2.65,0C204.83,63.35,205.39,63.71,206.09,64.15z"/>
			<path class="st0" d="M218.71,63.44c0.18-0.18,0.29-0.29,0.4-0.4c0.71,0,1.41,0,2.06,0c0.16,0.16,0.28,0.28,0.45,0.45
				c0,2.39,0,4.84,0,7.35c1.63,0,3.2,0,4.86,0c0,0.68,0,1.3,0,1.95c-0.1,0.1-0.22,0.22-0.37,0.37c-2.3,0-4.64,0-6.99,0
				c-0.11-0.11-0.23-0.23-0.4-0.4C218.71,69.72,218.71,66.61,218.71,63.44z"/>
			<path class="st0" d="M230.45,73.18c-0.86,0-1.67,0-2.53,0c0-3.35,0-6.67,0-10.14c0.78-0.09,1.63-0.01,2.53-0.04
				C230.45,66.38,230.45,69.71,230.45,73.18z"/>
			<path class="st0" d="M256.12,73.17c-0.87,0-1.67,0-2.53,0c0-3.35,0-6.68,0-10.13c0.78-0.09,1.63-0.01,2.53-0.04
				C256.12,66.39,256.12,69.71,256.12,73.17z"/>
		</g>
	</g>
	<g>
		<polygon class="st1" points="120.79,46.49 120.88,46.47 120.79,46.49 		"/>
		<polygon class="st1" points="120.45,58.12 120.45,46.57 120.45,46.57 119.52,42.47 119.52,58.72 120.45,58.72 		"/>
		<rect x="44.05" y="58.72" class="st1" width="0.95" height="0.51"/>
		<rect x="119.52" y="58.72" class="st1" width="0.93" height="0.51"/>
		<polygon class="st1" points="45,42.68 44.05,46.31 44.05,58.12 44.05,58.72 45,58.72 		"/>
		<path class="st1" d="M92.22,72.2c0.15-0.23,0.38-0.67,0.54-1.39h-0.58v-0.42h0.66c0.02-0.16,0.04-0.33,0.06-0.51h-0.72v-0.42h0.75
			c0.01-0.16,0.01-0.33,0.01-0.51h-0.76v-0.42h0.75c-0.01-0.16-0.02-0.34-0.03-0.51h-0.72v-0.42h0.68c-0.02-0.15-0.03-0.3-0.05-0.45
			h-0.63V66.7h0.57c-0.03-0.19-0.06-0.38-0.1-0.58h-0.47V65.7h0.38c-0.05-0.25-0.11-0.5-0.17-0.77h-0.21h0.21
			c-0.28-1.17-0.68-2.5-1.25-4.02c-0.01-0.02-0.19-0.65-0.55-1.14v11.11c0,0.3,0.1,0.97,0.38,1.05
			C91.27,71.83,91.77,71.81,92.22,72.2z"/>
		<path class="st1" d="M90.4,83.81c0,0.01-0.02,0.74,0.35,1.13c0.21,0.22,0.49,0.29,0.88,0.22c0.03-0.01,0.05,0,0.08,0c0,0,0,0,0,0
			c0.25,0,0.93-0.11,1.18-1.39c0.25-1.3,0.01-6.03-0.41-8.91c-0.03-0.18-0.05-0.35-0.08-0.51c-0.13-0.76-0.27-1.34-0.41-1.61
			c-0.01-0.03-0.02-0.06-0.03-0.09c-0.42-0.43-0.87-0.21-0.89-0.2l-0.02-0.03c-0.01,0.01-0.02,0.02-0.03,0.02
			c0,0-0.43,0.3-0.57,1.91c-0.01,0.16-0.02,0.33-0.03,0.51c-0.01,0.2-0.02,0.4-0.02,0.63V83.81z"/>
		<path class="st0" d="M92.17,66.12h0.47c-0.03-0.14-0.05-0.28-0.08-0.42h-0.38V66.12z"/>
		<path class="st0" d="M92.17,67.12h0.63c-0.02-0.14-0.04-0.28-0.06-0.42h-0.57V67.12z"/>
		<path class="st0" d="M92.17,68h0.72c-0.01-0.14-0.02-0.28-0.04-0.42h-0.68V68z"/>
		<path class="st0" d="M92.17,68.93h0.76c0-0.14,0-0.28-0.01-0.42h-0.75V68.93z"/>
		<path class="st0" d="M92.17,69.87h0.72c0.01-0.13,0.02-0.28,0.03-0.42h-0.75V69.87z"/>
		<path class="st0" d="M92.17,70.81h0.58c0.03-0.13,0.06-0.27,0.08-0.42h-0.66V70.81z"/>
		<path class="st0" d="M91.96,72.65c-0.01-0.09,0.02-0.17,0.08-0.23c0,0,0.07-0.07,0.17-0.22c-0.45-0.39-0.95-0.37-1.25-0.26
			c0,0,0.01,0.01,0.01,0.01c0.11,0.02,0.19,0.12,0.2,0.23c0.01,0.1-0.04,0.19-0.12,0.24l0.02,0.03
			C91.1,72.43,91.54,72.21,91.96,72.65z"/>
		<path class="st1" d="M83.36,70.37c0.03-0.01,0.05-0.02,0.08-0.03c1.81-0.16,3.04-0.77,3.66-1.81c0.97-1.6,0.16-3.74,0.15-3.76
			l-1.65-5.2h-7.13l-1.65,5.19c-0.01,0.04-0.82,2.17,0.15,3.77c0.62,1.04,1.86,1.65,3.66,1.81c0.03,0,0.06,0.01,0.09,0.03
			C81.08,70.44,82.15,70.6,83.36,70.37z"/>
		<path class="st1" d="M83.35,74.41c0.01-0.02,0.03-0.04,0.04-0.06c1.19-1.93,0.3-3.14,0-3.46C82.91,70.97,82.45,71,82.05,71
			c-0.62,0-1.1-0.07-1.35-0.12c-0.3,0.33-1.17,1.54,0.01,3.46c0.02,0.03,0.03,0.05,0.05,0.08C80.93,74.55,82.02,75.28,83.35,74.41z"
			/>
		<path class="st1" d="M82.77,77.36c-0.01-0.17-0.02-0.35-0.02-0.51c0.01-0.76,0.12-1.38,0.18-1.67c-0.32,0.11-0.62,0.16-0.89,0.16
			c-0.34,0-0.64-0.07-0.89-0.15c0.06,0.3,0.17,0.92,0.18,1.67c0,0.16-0.01,0.34-0.02,0.51H82.77z"/>
		<path class="st0" d="M83.39,70.88c-0.05-0.05-0.08-0.08-0.09-0.09c-0.08-0.07-0.11-0.17-0.08-0.27c0.02-0.07,0.07-0.12,0.13-0.15
			c-1.21,0.24-2.28,0.07-2.62,0c0.06,0.03,0.1,0.08,0.12,0.15c0.03,0.1,0,0.21-0.08,0.27c-0.01,0.01-0.04,0.04-0.09,0.09
			c0.25,0.05,0.73,0.12,1.35,0.12C82.45,71,82.91,70.97,83.39,70.88z"/>
		<path class="st0" d="M81.07,74.91c0.02,0.03,0.04,0.06,0.05,0.09c0,0.02,0.02,0.08,0.04,0.18c0.25,0.09,0.55,0.15,0.89,0.15
			c0.27,0,0.57-0.05,0.89-0.16c0.02-0.1,0.04-0.16,0.04-0.18c0.01-0.03,0.02-0.07,0.05-0.09c0.01-0.02,0.02-0.04,0.04-0.05
			c0.12-0.16,0.2-0.3,0.29-0.45c-1.33,0.87-2.42,0.15-2.6,0.01c0.09,0.14,0.17,0.28,0.29,0.43C81.05,74.87,81.06,74.89,81.07,74.91z
			"/>
		<path class="st1" d="M69.84,84.92c0.18,0.19,0.43,0.26,0.73,0.23c0.01,0,0.02,0,0.02,0c0.04,0,0.07,0.01,0.11,0.02
			c0.04-0.02,0.09-0.02,0.13-0.02c0.3,0.03,0.54-0.05,0.73-0.23c0.55-0.56,0.47-1.87,0.47-1.88l-0.5-8.19l-0.03-0.51l-0.36-5.96
			c-0.12-0.19-0.24-0.29-0.37-0.3c-0.21-0.02-0.42,0.23-0.48,0.31l-0.37,6.01l-0.03,0.53l-0.5,8.11
			C69.37,83.06,69.29,84.37,69.84,84.92z"/>
		<path class="st1" d="M70.74,67.57c0.01,0,0.02,0,0.03,0c0.27,0.01,0.5,0.16,0.7,0.44c0.22,0.01,0.41-0.06,0.56-0.22
			c0.77-0.8,0.63-3.43,0.51-4.38l-0.38-3.61h-0.43L72,65.09l-0.5,0.03l-0.26-5.3l0.26-0.01h-1.6l0.26,0.01l-0.27,5.3l-0.5-0.03
			l0.27-5.29h-0.43l-0.38,3.6c-0.12,0.95-0.26,3.58,0.51,4.38c0.16,0.16,0.35,0.23,0.58,0.22C70.06,67.86,70.36,67.57,70.74,67.57z
			 M70.43,59.81h0.5v5.3h-0.5V59.81z"/>
		<polygon class="st0" points="69.88,65.12 70.15,59.82 69.89,59.81 69.65,59.81 69.38,65.09 		"/>
		<polygon class="st0" points="71.5,65.12 72,65.09 71.73,59.81 71.49,59.81 71.24,59.82 		"/>
		<rect x="70.43" y="59.81" class="st0" width="0.5" height="5.3"/>
		<path class="st0" d="M70.75,68.08c0.12,0,0.25,0.1,0.37,0.3l-0.01-0.1c0-0.08,0.02-0.15,0.08-0.2c0.05-0.05,0.13-0.08,0.2-0.07
			c0.03,0,0.05,0,0.08,0c-0.2-0.28-0.44-0.43-0.7-0.44c-0.01,0-0.02,0-0.03,0c-0.38,0-0.68,0.29-0.81,0.44c0.02,0,0.04,0,0.07,0
			c0.07-0.01,0.15,0.01,0.2,0.07c0.05,0.05,0.08,0.13,0.08,0.2l-0.01,0.11C70.33,68.31,70.55,68.06,70.75,68.08z"/>
		<polygon class="st1" points="97.24,99.71 95.93,97.93 68.44,97.93 67.05,99.71 76.61,99.71 81.83,99.71 		"/>
		<polygon class="st1" points="59.39,56.8 57.81,58.4 59.22,65.1 59.22,65.1 59.22,65.11 63.55,85.59 63.55,85.59 63.62,85.89 
			66.51,99.59 68.05,97.61 		"/>
		<path class="st1" d="M96.43,97.75l1.19,1.63l2.72-12.86l0.2-0.93l0,0l5.75-27.21l-1.18-1.51l-8.67,40.85
			C96.44,97.73,96.43,97.74,96.43,97.75z"/>
		<path class="st1" d="M89.94,95.37c-0.38-0.93-2.09-0.98-2.11-0.98c-0.03,0-0.05,0-0.08-0.01c-0.74-0.26-1.11-0.6-1.15-1.02
			c-0.05-0.63,0.72-1.09,0.81-1.14c0.02-0.01,0.04-0.02,0.06-0.02c5.72-1.5,8.36-4.81,9.57-7.33c1.34-2.8,1.43-5.73,0.81-7.18
			c-1.13-2.67-3.78-2.82-3.89-2.83H93c0.44,3.02,0.64,7.75,0.39,9.01c-0.33,1.68-1.33,1.81-1.64,1.81c-0.03,0-0.05,0-0.06,0
			c-0.11,0.02-0.22,0.03-0.32,0.03c-0.4,0-0.72-0.13-0.97-0.4c-0.51-0.55-0.49-1.45-0.49-1.49v-8.32c0-0.24,0.02-0.42,0.03-0.63
			h-6.26c-0.08,0.11-0.13,0.21-0.22,0.33c-0.04,0.18-0.17,0.85-0.18,1.67h3.65c0.09,0,0.18,0.05,0.22,0.14
			c0.04,0.07,3.51,7.32-0.89,13.67c-0.05,0.07-0.12,0.11-0.2,0.11h-7.81c-0.07,0-0.13-0.03-0.17-0.07c-0.05-0.05-1.22-1.24-2-3.45
			c-0.04-0.11-0.07-0.23-0.11-0.35c-0.02,0.01-0.03,0.03-0.05,0.03c-0.03,0-0.05,0-0.07-0.01c-0.03-0.01-2.54-0.87-3.35-3.06
			c-0.06,0.48-0.21,1.05-0.58,1.42c-0.25,0.26-0.57,0.39-0.95,0.39c-0.06,0-0.11,0-0.17-0.01c-0.03,0-0.06-0.01-0.08-0.02
			c-0.03,0.01-0.05,0.02-0.08,0.02c-0.46,0.05-0.83-0.08-1.12-0.38c-0.72-0.72-0.62-2.22-0.61-2.28l0.49-7.94
			c-0.9,0.29-2.15,0.98-2.84,2.61c-0.61,1.45-0.53,4.38,0.81,7.18c1.21,2.52,3.85,5.83,9.57,7.33c0.02,0,0.04,0.01,0.06,0.02
			c0.09,0.05,0.87,0.51,0.81,1.14c-0.04,0.43-0.41,0.76-1.15,1.02c-0.02,0.01-0.05,0.01-0.08,0.01c-0.02,0-1.73,0.05-2.11,0.98h7.4
			h0.72H89.94z"/>
		<path class="st1" d="M95.55,100.87c7.01-1.26,9.2-2.84,9.39-6.78c0.17-3.58-3.37-5.63-4.39-6.14L98,100.02
			c-0.02,0.12-0.13,0.2-0.24,0.2H81.83h-5.22H66.34c-0.12,0-0.22-0.08-0.24-0.2l-2.54-12.03c-1.04,0.49-4.8,2.5-4.63,6.09
			c0.19,3.94,2.38,5.53,9.39,6.78c5.88,1.05,12.29,5.16,13.62,7.86C83.27,106.02,89.68,101.92,95.55,100.87z"/>
		<path class="st1" d="M86.74,81.33c0.07,0.01,0.14,0.06,0.18,0.12l0.83,1.45c0.04,0.08,0.05,0.18,0,0.26
			c-0.04,0.08-0.13,0.13-0.22,0.13H76.56c-0.09,0-0.17-0.05-0.22-0.13c-0.04-0.08-0.04-0.18,0-0.26l0.83-1.45
			c0.04-0.07,0.11-0.11,0.18-0.12c1.27-0.18,2.21-0.73,2.78-1.62c0.46-0.72,0.63-1.57,0.68-2.34h-3.54c-0.03,0-0.06,0-0.08-0.01
			c-0.08,0.19-0.16,0.38-0.23,0.56c-2.86,7.22,0.83,11.73,1.38,12.35h7.57c3.79-5.6,1.29-11.88,0.84-12.9h-3.48
			c0.04,0.77,0.21,1.62,0.68,2.34C84.53,80.6,85.47,81.14,86.74,81.33z M78.9,85.67h-1.09l1.16,3.1c0.05,0.13-0.01,0.28-0.14,0.33
			c-0.03,0.01-0.06,0.02-0.09,0.02c-0.1,0-0.19-0.06-0.23-0.16l-1.29-3.45c-0.03-0.08-0.02-0.17,0.03-0.24
			c0.05-0.07,0.12-0.11,0.21-0.11h1.45c0.14,0,0.25,0.11,0.25,0.26S79.03,85.67,78.9,85.67z M81.65,85.67h-1.22l0.32,3.42
			c0.01,0.14-0.09,0.27-0.22,0.28c-0.01,0-0.02,0-0.02,0c-0.13,0-0.24-0.1-0.25-0.23l-0.34-3.7c-0.01-0.07,0.02-0.14,0.06-0.2
			c0.05-0.05,0.11-0.08,0.18-0.08h1.5c0.14,0,0.25,0.11,0.25,0.26S81.79,85.67,81.65,85.67z M83.18,85.67l-0.37,3.48
			c-0.01,0.13-0.12,0.23-0.25,0.23c-0.01,0-0.02,0-0.03,0c-0.14-0.02-0.24-0.14-0.22-0.28l0.39-3.7c0.01-0.13,0.12-0.23,0.25-0.23
			h1.4c0.14,0,0.25,0.11,0.25,0.26s-0.11,0.26-0.25,0.26H83.18z M86.94,85.67H85.8l-0.91,3.51c-0.03,0.11-0.13,0.19-0.24,0.19
			c-0.02,0-0.04,0-0.06-0.01c-0.13-0.04-0.21-0.18-0.18-0.31l0.96-3.7c0.03-0.11,0.13-0.19,0.24-0.19h1.34
			c0.14,0,0.25,0.11,0.25,0.26S87.08,85.67,86.94,85.67z"/>
		<path class="st1" d="M105.65,85.49c0.2,0.01,0.38,0.02,0.56,0.02c2.99,0,4.33-1.41,5.21-2.34c0.12-0.12,0.22-0.23,0.33-0.33
			c1.29-1.27,2.53-1.8,3.26-2.01c-1.53-1.15-2.97-4.15-3.54-6.64c-0.39-1.7-2.76-3.06-2.79-3.07L104.55,69l-3.47,16.4L105.65,85.49z
			"/>
		<path class="st1" d="M72.71,82.47c0,2.48,2.39,3.62,3.08,3.9c-0.13-0.49-0.23-1.04-0.31-1.64c-1.44-0.43-1.7-2.11-1.71-2.19
			c0-0.04-0.22-2.52,2.11-2.92c0.11-0.4,0.24-0.82,0.39-1.24c-0.53,0.02-1.63,0.18-2.46,0.97C73.08,80.05,72.71,81.1,72.71,82.47z"
			/>
		<path class="st1" d="M74.26,82.48c0,0,0.21,1.25,1.17,1.68c-0.09-1.17-0.01-2.5,0.32-3.98C74.11,80.61,74.26,82.4,74.26,82.48z"/>
		<path class="st1" d="M80.55,79.98c-0.64,0.99-1.65,1.61-3.01,1.83l-0.55,0.96h4.84h5.27l-0.55-0.96
			c-1.36-0.22-2.37-0.84-3.01-1.83c-0.53-0.82-0.72-1.77-0.77-2.62h-1.45C81.27,78.22,81.08,79.17,80.55,79.98z"/>
		<path class="st1" d="M95.99,97.41l8.65-40.75c-0.83,0.24-2.82,0.73-5.51,0.73c-2.21,0-4.4-0.33-6.5-0.98
			c-1.35-0.42-2.67-0.63-3.93-0.63c-4.05,0-6.25,2.2-6.27,2.23c-0.09,0.1-0.26,0.1-0.36,0c-0.02-0.02-2.22-2.23-6.27-2.23
			c-1.26,0-2.58,0.21-3.93,0.63c-2.1,0.65-4.29,0.98-6.5,0.98c-2.69,0-4.69-0.48-5.51-0.73l8.65,40.75H95.99z M66.06,77.48
			c0.81-1.92,2.33-2.66,3.33-2.95l0.37-6c-0.29-0.03-0.55-0.15-0.76-0.37c-1.1-1.14-0.67-4.66-0.65-4.8l0.4-3.83
			c0.01-0.13,0.12-0.23,0.25-0.23h3.39c0.13,0,0.23,0.1,0.25,0.23l0.4,3.83c0.02,0.14,0.45,3.66-0.65,4.8
			c-0.22,0.22-0.47,0.35-0.76,0.37l0.36,5.82h8.12c-0.93-1.71-0.39-2.95,0.03-3.55c-1.72-0.24-2.92-0.91-3.57-2
			c-1.1-1.82-0.23-4.12-0.19-4.21l1.7-5.35c0.03-0.11,0.13-0.18,0.24-0.18h7.49c0.11,0,0.2,0.07,0.24,0.18l1.7,5.36
			c0.03,0.08,0.9,2.37-0.2,4.2c-0.65,1.09-1.85,1.76-3.57,2c0.42,0.59,0.96,1.83,0.03,3.55h5.96c0.1-1.18,0.35-1.8,0.57-2.1
			c-0.41-0.4-0.43-1.25-0.43-1.36V59.17c0-0.09,0.05-0.18,0.13-0.23c0.08-0.04,0.18-0.04,0.26,0.01c0.75,0.52,1.11,1.75,1.13,1.8
			c0.44,1.17,0.78,2.23,1.04,3.2h0h0c1.62,5.91,0.31,8.14-0.14,8.7c0.15,0.37,0.29,0.96,0.41,1.69h1.06
			c0.14,0.01,3.09,0.17,4.34,3.13c0.66,1.55,0.58,4.67-0.82,7.61c-1.25,2.61-3.97,6.04-9.86,7.59c-0.2,0.12-0.55,0.41-0.53,0.64
			c0.01,0.09,0.1,0.32,0.78,0.57c0.34,0.01,2.48,0.16,2.63,1.72c0.01,0.07-0.02,0.14-0.06,0.2c-0.05,0.05-0.11,0.08-0.18,0.08h-7.71
			h-0.72h-7.71c-0.07,0-0.14-0.03-0.18-0.08c-0.05-0.05-0.07-0.12-0.06-0.2c0.15-1.56,2.29-1.71,2.63-1.72
			c0.68-0.25,0.77-0.48,0.78-0.57c0.02-0.23-0.34-0.52-0.53-0.64c-5.89-1.55-8.61-4.98-9.86-7.59
			C65.48,82.14,65.41,79.03,66.06,77.48z"/>
		<path class="st1" d="M119.52,80.43c0,0.1-0.17,9.12-4.83,18.32c-4.31,8.51-13.43,18.91-32.37,20.17l-0.06,0l-0.09-0.01
			c-18.9-1.25-28.01-11.65-32.33-20.16C45.18,89.55,45,80.53,45,80.44V59.23h-0.95v0.6v21c0,0.09,0.19,9.36,4.98,18.82
			c4.42,8.71,13.76,19.35,33.22,20.65c19.46-1.3,28.81-11.95,33.23-20.67c4.79-9.45,4.97-18.71,4.98-18.8v-21v-0.6h-0.93V80.43z"/>
		<path class="st1" d="M79.1,123.61c0-1.34,0.85-2.48,2.02-2.89c-18.95-1.63-28.15-12.19-32.54-20.85
			c-4.84-9.56-5.03-18.94-5.03-19.03V59.83h-5.52v12.08c-0.02,0.28-1.27,24.5,12.54,40.34c7.22,8.28,17.29,12.96,29.94,13.94
			C79.67,125.66,79.1,124.7,79.1,123.61z M40.77,64.5c-0.84,0-1.52-0.7-1.52-1.56c0-0.86,0.68-1.56,1.52-1.56
			c0.84,0,1.52,0.7,1.52,1.56C42.29,63.8,41.61,64.5,40.77,64.5z"/>
		<path class="st1" d="M115.92,99.87c-4.41,8.71-13.68,19.32-32.82,20.87c1.14,0.43,1.96,1.55,1.96,2.87c0,1.15-0.62,2.15-1.54,2.67
			c13.14-0.79,23.58-5.5,31-14.02c13.89-15.93,12.56-40.04,12.54-40.29l0-12.14h-6.11v21C120.95,80.93,120.76,90.31,115.92,99.87z
			 M124.06,60.9c0.84,0,1.52,0.7,1.52,1.56c0,0.86-0.68,1.56-1.52,1.56s-1.52-0.7-1.52-1.56C122.53,61.6,123.22,60.9,124.06,60.9z"
			/>
		<path class="st1" d="M124.06,63.5c0.56,0,1.02-0.47,1.02-1.05c0-0.58-0.46-1.05-1.02-1.05c-0.56,0-1.02,0.47-1.02,1.05
			C123.03,63.04,123.49,63.5,124.06,63.5z"/>
		<ellipse class="st1" cx="82.08" cy="123.61" rx="2.52" ry="2.58"/>
		<path class="st1" d="M40.77,61.89c-0.56,0-1.02,0.47-1.02,1.05c0,0.58,0.46,1.05,1.02,1.05c0.56,0,1.02-0.47,1.02-1.05
			C41.79,62.36,41.33,61.89,40.77,61.89z"/>
		<path class="st0" d="M85.06,123.61c0-1.32-0.82-2.44-1.96-2.87c-0.28,0.02-0.55,0.05-0.83,0.07l-0.02,0l-0.02,0
			c-0.38-0.02-0.74-0.06-1.11-0.09c-1.17,0.41-2.02,1.55-2.02,2.89c0,1.1,0.57,2.06,1.42,2.59c0.59,0.05,1.18,0.09,1.78,0.12h0.53
			c0.23-0.01,0.46-0.03,0.69-0.04C84.44,125.75,85.06,124.75,85.06,123.61z M82.08,126.19c-1.39,0-2.52-1.16-2.52-2.58
			c0-1.42,1.13-2.58,2.52-2.58s2.52,1.16,2.52,2.58C84.6,125.03,83.47,126.19,82.08,126.19z"/>
		<path class="st0" d="M124.06,64.02c0.84,0,1.52-0.7,1.52-1.56c0-0.86-0.68-1.56-1.52-1.56s-1.52,0.7-1.52,1.56
			C122.53,63.32,123.22,64.02,124.06,64.02z M124.06,61.41c0.56,0,1.02,0.47,1.02,1.05c0,0.58-0.46,1.05-1.02,1.05
			c-0.56,0-1.02-0.47-1.02-1.05C123.03,61.88,123.49,61.41,124.06,61.41z"/>
		<path class="st0" d="M40.77,61.38c-0.84,0-1.52,0.7-1.52,1.56c0,0.86,0.68,1.56,1.52,1.56c0.84,0,1.52-0.7,1.52-1.56
			C42.29,62.08,41.61,61.38,40.77,61.38z M40.77,63.99c-0.56,0-1.02-0.47-1.02-1.05c0-0.58,0.46-1.05,1.02-1.05
			c0.56,0,1.02,0.47,1.02,1.05C41.79,63.52,41.33,63.99,40.77,63.99z"/>
		<path class="st1" d="M55.17,71.12c-0.01,0.01-2.39,1.37-2.77,3.06c-0.57,2.49-2.01,5.49-3.54,6.64c0.73,0.21,1.97,0.74,3.26,2.01
			c0.1,0.1,0.21,0.21,0.33,0.34c0.94,0.98,2.39,2.5,5.76,2.32l4.8-0.1l-3.47-16.43L55.17,71.12z"/>
		<path class="st1" d="M90.24,51.68c0.38,0,0.76,0.02,1.14,0.06c0.91,0.09,1.94,0.24,3.03,0.39c1.83,0.25,3.83,0.53,5.87,0.67V42.21
			H82.2v12.56C82.72,54.29,85.8,51.68,90.24,51.68z"/>
		<path class="st1" d="M69.45,52.13c1.09-0.15,2.12-0.29,3.03-0.39c0.36-0.04,0.73-0.06,1.09-0.06c4,0,7.08,2.2,8.14,3.06V42.21
			H63.49V52.8C65.56,52.67,67.6,52.39,69.45,52.13z"/>
		<path class="st1" d="M100.57,52.82c0.71,0.04,1.43,0.07,2.15,0.07c3.73,0,6.57-0.7,8.68-2.13c0.07-0.05,0.16-0.05,0.23-0.02
			c0.08,0.03,0.13,0.1,0.15,0.19c0.02,0.11,2,11.35-6.46,14.44l-0.66,3.12l4.25,2.18c0.11,0.06,2.6,1.49,3.04,3.41
			c0.61,2.7,2.3,6.01,3.84,6.63c0.11,0.04,0.17,0.16,0.15,0.27c-0.02,0.12-0.11,0.21-0.22,0.22c-0.02,0-1.77,0.19-3.63,2.02
			c-0.1,0.1-0.2,0.2-0.31,0.32c-0.94,0.98-2.54,2.65-6.14,2.47l-4.65-0.1l-0.32,1.52c0.93,0.46,4.97,2.67,4.78,6.68
			c-0.15,3.22-1.66,4.89-4.65,5.99v11.56c6.22-3.85,10.07-9.06,12.41-13.68c4.46-8.79,4.65-17.47,4.65-17.56V42.21h-17.06v10.61
			H100.57z"/>
		<path class="st1" d="M58.43,94.11c-0.19-4.08,4.03-6.19,5.02-6.63l-0.33-1.58l-4.89,0.1c-0.19,0.01-0.38,0.02-0.57,0.02
			c-3.19,0-4.68-1.56-5.57-2.49c-0.11-0.12-0.22-0.23-0.32-0.32c-1.86-1.82-3.61-2.01-3.63-2.02c-0.11-0.01-0.21-0.1-0.22-0.22
			c-0.02-0.12,0.05-0.23,0.15-0.27c1.54-0.63,3.22-3.93,3.84-6.63c0.43-1.91,2.92-3.34,3.03-3.4l4.32-2.14l-0.51-3.2
			c-8.46-3.09-6.7-14.29-6.68-14.41c0.01-0.08,0.07-0.16,0.15-0.19c0.08-0.03,0.16-0.02,0.24,0.02c2.12,1.43,4.96,2.13,8.68,2.13
			c0.72,0,1.43-0.03,2.15-0.07h-0.3V42.21H46.67v38.22c0,0.08,0.2,8.76,4.65,17.54c2.25,4.43,5.88,9.4,11.67,13.2v-11.11
			C60.06,98.96,58.58,97.3,58.43,94.11z"/>
		<path class="st1" d="M81.68,109.6L81.68,109.6C81.68,109.6,81.68,109.6,81.68,109.6c-0.11-2.16-6.81-7.04-13.45-8.23
			c-1.85-0.33-3.42-0.69-4.74-1.13v11.26c4.61,2.9,10.55,5.06,18.19,5.66V109.6z"/>
		<path class="st1" d="M95.64,101.37c-6.65,1.19-13.34,6.07-13.45,8.23c0,0,0,0,0,0v7.59c0.04,0,0.08,0.01,0.12,0.01
			c7.49-0.5,13.37-2.5,17.99-5.25v-11.69C98.99,100.7,97.45,101.04,95.64,101.37z"/>
		<path class="st1" d="M73.48,78.98c1.08-1.03,2.49-1.11,2.97-1.1c0.02-0.05,0.03-0.1,0.05-0.15c0.09-0.24,0.19-0.48,0.3-0.72
			c0.06-0.13,0.21-0.18,0.33-0.13c0.01,0,0.01,0.01,0.02,0.01c0.04-0.02,0.08-0.03,0.12-0.03h3.55c-0.01-0.82-0.14-1.49-0.18-1.67
			c-0.09-0.11-0.14-0.22-0.22-0.33h-8.41L72.39,81C72.59,80.18,72.94,79.49,73.48,78.98z"/>
		<path class="st1" d="M57.36,58.14l2-2.02c0,0,0.01,0,0.01,0c0,0,0,0,0-0.01c0.01-0.01,0.02,0,0.03,0
			c0.06-0.04,0.12-0.05,0.19-0.04c0.01,0,0.02-0.01,0.03-0.01c0.02,0.01,2.34,0.83,5.76,0.83c2.16,0,4.3-0.32,6.36-0.96
			c1.39-0.43,2.76-0.65,4.07-0.65c3.66,0,5.84,1.67,6.45,2.21c0.61-0.54,2.79-2.21,6.45-2.21c1.31,0,2.68,0.22,4.07,0.65
			c2.05,0.64,4.19,0.96,6.36,0.96c3.42,0,5.74-0.82,5.76-0.83c0.01-0.01,0.03,0.01,0.04,0.01c0.06-0.01,0.11,0,0.17,0.03
			c0.01,0.01,0.03,0,0.04,0.01c0,0,0,0.01,0.01,0.02c0.01,0.01,0.02,0.01,0.02,0.01l1.58,2.02c0.05,0.06,0.07,0.14,0.05,0.21
			l-1.35,6.37c6.86-2.77,6.15-11.43,5.9-13.35c-2.16,1.34-4.99,2-8.63,2c-2.9,0-5.81-0.4-8.37-0.76c-1.09-0.15-2.11-0.29-3.01-0.39
			c-0.36-0.04-0.73-0.06-1.09-0.06c-4.6,0-7.78,3.02-7.81,3.05l-0.36,0.24c-0.1,0.06-0.22,0.05-0.3-0.03
			c-0.04-0.03-3.53-3.27-8.19-3.27c-0.35,0-0.7,0.02-1.04,0.05c-0.9,0.09-1.93,0.24-3.01,0.39c-2.57,0.36-5.48,0.76-8.37,0.76
			c-3.64,0-6.47-0.65-8.63-1.99c-0.22,1.93-0.75,10.55,6.12,13.32l-1.34-6.35C57.27,58.29,57.3,58.2,57.36,58.14z"/>
		<rect x="118.93" y="58.72" class="st0" width="0.59" height="0.51"/>
		<polygon class="st0" points="45,42.68 45,58.72 45.59,58.72 45.59,41.1 118.93,41.1 118.93,58.72 119.52,58.72 119.52,42.47 
			119.1,40.64 119.52,40.5 45.02,40.5 45.14,42.16 		"/>
		<polygon class="st0" points="45,40.5 45,40.54 45.01,40.5 		"/>
		<rect x="45" y="58.72" class="st0" width="0.59" height="0.51"/>
		<path class="st0" d="M49.84,98.75c4.31,8.51,13.43,18.91,32.33,20.16l0.09,0.01l0.06,0c18.95-1.26,28.06-11.66,32.37-20.17
			c4.66-9.2,4.83-18.22,4.83-18.32v-21.2h-0.59v21.2c0,0.09-0.18,8.98-4.77,18.04c-2.49,4.92-6.62,10.47-13.38,14.48v0.04h-0.07
			c-4.74,2.79-10.77,4.82-18.44,5.33l-0.02,0l-0.02,0c-8.05-0.53-14.29-2.74-19.14-5.75h-0.12v-0.07
			c-6.32-3.96-10.24-9.29-12.64-14.03c-4.59-9.06-4.77-17.95-4.77-18.04v-21.2H45v21.21C45,80.53,45.18,89.55,49.84,98.75z"/>
		<path class="st0" d="M63.11,112.56c-0.04-0.02-0.08-0.05-0.12-0.07v0.07H63.11z"/>
		<path class="st0" d="M100.79,112.99v-0.04c-0.02,0.01-0.05,0.03-0.07,0.04H100.79z"/>
		<path class="st0" d="M117.85,42.21v38.21c0,0.09-0.19,8.76-4.65,17.56c-2.35,4.62-6.19,9.83-12.41,13.68v0.69
			c6.51-3.93,10.51-9.32,12.93-14.1c4.54-8.95,4.72-17.74,4.72-17.82V41.61h-17.65v0.6H117.85z"/>
		<polygon class="st0" points="81.71,42.21 81.71,41.61 82.2,41.61 82.2,42.21 100.29,42.21 100.29,41.61 63.49,41.61 63.49,42.21 
					"/>
		<path class="st0" d="M51.32,97.97c-4.46-8.79-4.65-17.47-4.65-17.54V42.21h16.32v-0.6H46.09v38.82c0,0.08,0.18,8.87,4.72,17.82
			c2.33,4.59,6.11,9.75,12.19,13.64v-0.72C57.2,107.38,53.57,102.41,51.32,97.97z"/>
		<path class="st0" d="M81.68,117.15c-7.64-0.6-13.58-2.75-18.19-5.66v0.7c4.64,2.86,10.59,4.97,18.19,5.56V117.15z"/>
		<path class="st0" d="M82.18,117.19v0.6c0.03,0,0.05,0,0.08,0.01c7.48-0.5,13.38-2.45,18.03-5.15v-0.69
			c-4.61,2.75-10.5,4.75-17.99,5.25C82.26,117.2,82.22,117.2,82.18,117.19z"/>
		<path class="st0" d="M63.49,111.5c-0.17-0.11-0.33-0.22-0.5-0.33v0.72c0.16,0.1,0.33,0.21,0.5,0.31V111.5z"/>
		<rect x="62.99" y="41.61" class="st0" width="0.5" height="0.6"/>
		<path class="st0" d="M100.29,111.96v0.69c0.17-0.1,0.33-0.2,0.5-0.3v-0.69C100.62,111.76,100.46,111.86,100.29,111.96z"/>
		<rect x="100.29" y="41.61" class="st0" width="0.5" height="0.6"/>
		<rect x="81.71" y="41.61" class="st0" width="0.5" height="0.6"/>
		<path class="st0" d="M81.68,117.15v0.6c0.17,0.01,0.33,0.03,0.5,0.04v-0.6C82.01,117.18,81.85,117.17,81.68,117.15z"/>
		<path class="st0" d="M45.84,59.23h-0.25v21.2c0,0.09,0.18,8.98,4.77,18.04c2.4,4.73,6.31,10.06,12.64,14.03v-0.61
			c-6.07-3.88-9.86-9.05-12.19-13.64c-4.54-8.95-4.72-17.74-4.72-17.82V41.61h16.91V41.1h0.5v0.51h36.8V41.1h0.5v0.51h17.65v38.82
			c0,0.09-0.18,8.87-4.72,17.82c-2.42,4.78-6.42,10.17-12.93,14.1v0.6c6.76-4,10.89-9.56,13.38-14.48
			c4.59-9.06,4.77-17.95,4.77-18.04v-21.2h-0.25v-0.51h0.25V41.1H45.59v17.62h0.25V59.23z"/>
		<path class="st0" d="M100.29,112.65c-4.65,2.7-10.55,4.66-18.03,5.15c-0.03,0-0.05,0-0.08-0.01v0.01h-0.5v-0.05
			c-7.6-0.59-13.55-2.7-18.19-5.56v0.37h-0.38c4.84,3.01,11.09,5.22,19.14,5.75l0.02,0l0.02,0c7.67-0.51,13.7-2.54,18.44-5.33h-0.43
			V112.65z"/>
		<path class="st0" d="M63.49,112.56v-0.37c-0.17-0.1-0.33-0.21-0.5-0.31v0.61c0.04,0.02,0.08,0.05,0.12,0.07H63.49z"/>
		<rect x="62.99" y="41.1" class="st0" width="0.5" height="0.51"/>
		<path class="st0" d="M100.29,112.99h0.43c0.02-0.01,0.05-0.03,0.07-0.04v-0.6c-0.17,0.1-0.33,0.2-0.5,0.3V112.99z"/>
		<rect x="100.29" y="41.1" class="st0" width="0.5" height="0.51"/>
		<path class="st0" d="M81.68,117.8h0.5v-0.01c-0.17-0.01-0.33-0.03-0.5-0.04V117.8z"/>
		<path class="st0" d="M128.73,58.12h-7.78l0,0.6h7.2v13.2c0.01,0.23,1.38,24.79-12.82,41.08c-7.75,8.89-18.68,13.75-32.48,14.43
			h-0.58c-13.81-0.68-24.74-5.54-32.5-14.43c-14.2-16.29-12.83-40.85-12.82-41.1l0-13.18h6.6v-0.6h-7.19l0,13.74
			c-0.02,0.25-1.46,24.99,12.96,41.54c7.86,9.02,18.93,13.94,32.93,14.63h0.6h0.01c13.96-0.69,25.03-5.61,32.89-14.63
			c14.37-16.49,12.98-41.27,12.96-41.48V58.12z"/>
		<path class="st0" d="M127.06,59.83l0,12.14c0.02,0.24,1.35,24.35-12.54,40.29c-7.42,8.51-17.86,13.23-31,14.02
			c-0.43,0.24-0.92,0.38-1.44,0.38c-0.57,0-1.11-0.17-1.56-0.46c-12.66-0.98-22.73-5.66-29.94-13.94
			C36.76,96.42,38.02,72.19,38.03,71.91V59.83h5.52v-0.6h-6.1v12.68c-0.02,0.26-1.37,24.62,12.69,40.74
			c7.66,8.79,18.47,13.58,32.13,14.26h0.56c13.65-0.67,24.46-5.47,32.12-14.26c14.06-16.13,12.71-40.48,12.69-40.72l0-12.7h-6.7v0.6
			H127.06z"/>
		<path class="st0" d="M82.3,126.31c-0.6-0.03-1.19-0.07-1.78-0.12c0.45,0.29,0.99,0.46,1.56,0.46c0.52,0,1.01-0.14,1.44-0.38
			c-0.23,0.01-0.46,0.03-0.69,0.04H82.3z"/>
		<path class="st0" d="M127.65,59.23l0,12.7c0.01,0.24,1.37,24.59-12.69,40.72c-7.66,8.79-18.47,13.59-32.12,14.26h-0.56
			c-13.66-0.67-24.47-5.47-32.13-14.26C36.08,96.53,37.43,72.18,37.45,71.92V59.23h6.1v-0.51h-6.6l0,13.18
			c-0.02,0.25-1.38,24.81,12.82,41.1c7.75,8.89,18.68,13.75,32.5,14.43h0.58c13.8-0.68,24.73-5.54,32.48-14.43
			c14.2-16.29,12.83-40.85,12.82-41.08v-13.2h-7.2v0.51H127.65z"/>
		<rect x="45.59" y="58.72" class="st0" width="0.25" height="0.51"/>
		<rect x="118.69" y="58.72" class="st0" width="0.25" height="0.51"/>
		<path class="st0" d="M59.37,56.1C59.37,56.1,59.37,56.11,59.37,56.1c0.01,0,0.02,0,0.03,0C59.39,56.1,59.38,56.1,59.37,56.1z"/>
		<path class="st0" d="M68.33,97.26l0.39,0.32l-0.27,0.35h27.49l-0.15-0.21l0.4-0.31l0.25,0.34c0-0.01,0.01-0.02,0.01-0.03
			l8.67-40.85l-0.33-0.42c-0.09-0.11-0.07-0.27,0.04-0.36c0.03-0.03,0.07-0.03,0.11-0.03c-0.01,0-0.03-0.01-0.04-0.01
			c-0.02,0.01-2.34,0.83-5.76,0.83c-2.16,0-4.3-0.32-6.36-0.96c-1.39-0.43-2.76-0.65-4.07-0.65c-3.66,0-5.84,1.67-6.45,2.21
			c-0.61-0.54-2.79-2.21-6.45-2.21c-1.31,0-2.68,0.22-4.07,0.65c-2.05,0.64-4.19,0.96-6.36,0.96c-3.42,0-5.74-0.82-5.76-0.83
			c-0.01,0-0.02,0.01-0.03,0.01c0.04,0.01,0.09,0.02,0.13,0.05c0.1,0.1,0.1,0.26,0,0.36l-0.32,0.33l8.66,40.81L68.33,97.26z
			 M65.38,57.39c2.21,0,4.4-0.33,6.5-0.98c1.35-0.42,2.67-0.63,3.93-0.63c4.05,0,6.25,2.2,6.27,2.23c0.09,0.1,0.26,0.1,0.36,0
			c0.02-0.02,2.22-2.23,6.27-2.23c1.26,0,2.58,0.21,3.93,0.63c2.1,0.65,4.29,0.98,6.5,0.98c2.69,0,4.69-0.48,5.51-0.73l-8.65,40.75
			H68.52l-8.65-40.75C60.7,56.91,62.69,57.39,65.38,57.39z"/>
		<path class="st0" d="M105.14,56.1c-0.01-0.01-0.03,0-0.04-0.01c0.02,0.01,0.03,0.01,0.05,0.03
			C105.15,56.11,105.15,56.11,105.14,56.1z"/>
		<path class="st0" d="M106.75,58.16l-1.58-2.02c-0.01-0.01-0.02-0.01-0.02-0.01c0.06,0.06,0.09,0.14,0.07,0.23l-0.11,0.52
			l1.18,1.51l-5.75,27.21c0.02-0.12,0.13-0.2,0.24-0.2c0,0,0,0,0,0l0.3,0.01l3.47-16.4l-0.29-0.15c-0.1-0.05-0.16-0.17-0.13-0.28
			l0.73-3.45c0.02-0.09,0.08-0.16,0.16-0.19c0.15-0.05,0.28-0.12,0.43-0.18l1.35-6.37C106.82,58.3,106.8,58.22,106.75,58.16z"/>
		<path class="st0" d="M100.13,87.52l0.21-1l-2.72,12.86l0.13,0.18l-0.4,0.31l-0.11-0.15H81.83c0.1,0,0.18,0.08,0.21,0.17
			c0.01,0.03,0.03,0.05,0.03,0.09c0,0.03-0.02,0.06-0.03,0.09c-0.04,0.09-0.11,0.17-0.21,0.17h15.92c0.12,0,0.22-0.08,0.24-0.2
			l2.55-12.08c-0.16-0.08-0.27-0.13-0.27-0.13C100.17,87.76,100.1,87.64,100.13,87.52z"/>
		<path class="st0" d="M104.78,56.45l0.33,0.42l0.11-0.52c0.02-0.08-0.02-0.17-0.07-0.23c-0.01-0.01-0.03-0.02-0.05-0.03
			c-0.05-0.03-0.11-0.04-0.17-0.03c-0.04,0.01-0.08,0.01-0.11,0.03C104.72,56.18,104.7,56.34,104.78,56.45z"/>
		<path class="st0" d="M63.31,85.39c0.12,0,0.22,0.08,0.24,0.2l-4.33-20.48l0.56,3.53c0.02,0.11-0.04,0.22-0.14,0.27l-0.11,0.06
			L63,85.39L63.31,85.39C63.31,85.39,63.31,85.39,63.31,85.39z"/>
		<path class="st0" d="M66.34,100.22h10.27c-0.1,0,5.47-0.08,5.44-0.17c-0.01-0.03-0.03-0.05-0.03-0.09c0-0.03,0.02-0.06,0.03-0.09
			c0.04-0.09-5.54-0.17-5.44-0.17h-9.56l-0.26,0.33l-0.39-0.32l0.1-0.13l-2.9-13.7l0.36,1.69c0.03,0.12-0.04,0.25-0.15,0.29
			c-0.01,0-0.11,0.04-0.27,0.12l2.54,12.03C66.12,100.14,66.22,100.22,66.34,100.22z"/>
		<path class="st0" d="M81.83,99.71h-5.22c-0.1,0,5.47,0.08,5.44,0.17C82.01,99.79,81.94,99.71,81.83,99.71z"/>
		<path class="st0" d="M82.05,100.05c0.04,0.09-5.54,0.17-5.44,0.17h5.22C81.94,100.22,82.01,100.15,82.05,100.05z"/>
		<path class="st0" d="M59.22,65.1l-1.42-6.7l1.58-1.6l-0.1-0.45c-0.02-0.09,0.01-0.18,0.08-0.24c0,0-0.01,0-0.01,0l-2,2.02
			c-0.06,0.06-0.09,0.15-0.07,0.24l1.34,6.35c0.15,0.06,0.27,0.13,0.43,0.18C59.15,64.93,59.21,65.01,59.22,65.1z"/>
		<path class="st0" d="M59.71,56.11c-0.03-0.04-0.08-0.04-0.13-0.05c-0.07-0.02-0.13,0-0.19,0.04c-0.01,0.01-0.02,0-0.03,0.01
			c-0.06,0.06-0.1,0.15-0.08,0.24l0.1,0.45l0.32-0.33C59.81,56.38,59.81,56.21,59.71,56.11z"/>
		<path class="st0" d="M82.05,99.88c-0.01,0.03-0.03,0.05-0.03,0.09c0,0.03,0.02,0.06,0.03,0.09c0.01-0.03,0.03-0.05,0.03-0.09
			C82.08,99.93,82.06,99.91,82.05,99.88z"/>
		<path class="st0" d="M82.76,76.85h0.5c0.01-0.82,0.14-1.49,0.18-1.67c0.09-0.11,0.14-0.22,0.22-0.33H83.6
			c-0.23,0.15-0.45,0.25-0.66,0.33C82.87,75.47,82.77,76.1,82.76,76.85z"/>
		<path class="st0" d="M83.02,74.91C83,74.93,82.98,74.97,82.98,75c0,0.02-0.02,0.08-0.04,0.18c0.21-0.08,0.43-0.18,0.66-0.33h-0.54
			C83.04,74.87,83.04,74.89,83.02,74.91z"/>
		<path class="st0" d="M80.83,76.85h0.5c-0.01-0.75-0.12-1.37-0.18-1.67c-0.33-0.11-0.56-0.25-0.67-0.33h-0.06
			c0.08,0.11,0.13,0.21,0.22,0.33C80.69,75.36,80.82,76.03,80.83,76.85z"/>
		<path class="st0" d="M81.12,75c-0.01-0.03-0.02-0.07-0.05-0.09c-0.01-0.02-0.02-0.04-0.04-0.05h-0.55
			c0.11,0.08,0.34,0.22,0.67,0.33C81.14,75.08,81.12,75.02,81.12,75z"/>
		<path class="st0" d="M86.55,81.81l0.55,0.96h-5.27h-4.84l0.55-0.96c1.36-0.22,2.37-0.84,3.01-1.83c0.53-0.82,0.72-1.77,0.77-2.62
			h-0.5c-0.04,0.77-0.21,1.62-0.68,2.34c-0.58,0.89-1.51,1.44-2.78,1.62c-0.07,0.01-0.14,0.06-0.18,0.12l-0.83,1.45
			c-0.04,0.08-0.05,0.18,0,0.26c0.04,0.08,0.13,0.13,0.22,0.13h10.98c0.09,0,0.17-0.05,0.22-0.13c0.04-0.08,0.04-0.18,0-0.26
			l-0.83-1.45c-0.04-0.07-0.11-0.11-0.18-0.12c-1.27-0.18-2.21-0.73-2.78-1.62c-0.46-0.72-0.63-1.57-0.68-2.34h-0.5
			c0.05,0.85,0.24,1.8,0.77,2.62C84.18,80.98,85.19,81.59,86.55,81.81z"/>
		<path class="st0" d="M80.7,70.88c-0.11-0.02-0.18-0.04-0.19-0.04l0.12-0.5c0,0,0.04,0.01,0.11,0.02
			c-0.03-0.02-0.06-0.03-0.09-0.03c-1.81-0.16-3.04-0.77-3.66-1.81c-0.97-1.6-0.16-3.74-0.15-3.77l1.65-5.19h7.13l1.65,5.2
			c0.01,0.02,0.81,2.16-0.15,3.76c-0.62,1.04-1.86,1.65-3.66,1.81c-0.03,0-0.06,0.01-0.08,0.03c0.04-0.01,0.08-0.01,0.12-0.02
			l0.1,0.5c-0.06,0.01-0.12,0.02-0.18,0.03c0.3,0.32,1.19,1.53,0,3.46h0.6c0.93-1.71,0.39-2.95-0.03-3.55
			c1.72-0.24,2.92-0.91,3.57-2c1.1-1.82,0.23-4.12,0.2-4.2l-1.7-5.36c-0.03-0.11-0.13-0.18-0.24-0.18H78.3
			c-0.11,0-0.2,0.07-0.24,0.18l-1.7,5.35c-0.04,0.1-0.9,2.39,0.19,4.21c0.65,1.09,1.85,1.76,3.57,2c-0.42,0.59-0.96,1.83-0.03,3.55
			h0.6C79.53,72.43,80.4,71.21,80.7,70.88z"/>
		<path class="st0" d="M80.79,70.79c0.08-0.07,0.11-0.17,0.08-0.27c-0.02-0.07-0.07-0.12-0.12-0.15c-0.07-0.01-0.11-0.02-0.11-0.02
			l-0.12,0.5c0.01,0,0.08,0.02,0.19,0.04C80.74,70.83,80.78,70.8,80.79,70.79z"/>
		<path class="st0" d="M83.23,70.52c-0.03,0.1,0,0.21,0.08,0.27c0.01,0.01,0.04,0.04,0.09,0.09c0.06-0.01,0.12-0.02,0.18-0.03
			l-0.1-0.5c-0.04,0.01-0.08,0.01-0.12,0.02C83.3,70.4,83.25,70.45,83.23,70.52z"/>
		<path class="st0" d="M89.93,74.85c0.01-0.17,0.01-0.36,0.02-0.51h-5.96c-0.09,0.16-0.21,0.34-0.33,0.51H89.93z"/>
		<path class="st0" d="M93.96,74.85c0.11,0,2.77,0.16,3.89,2.83c0.61,1.45,0.53,4.38-0.81,7.18c-1.21,2.52-3.84,5.83-9.57,7.33
			c-0.02,0-0.04,0.01-0.06,0.02c-0.09,0.05-0.87,0.51-0.81,1.14c0.04,0.43,0.41,0.76,1.15,1.02c0.02,0.01,0.05,0.01,0.08,0.01
			c0.02,0,1.73,0.05,2.11,0.98h-7.4c0.14,0,0.25,0.11,0.25,0.26s-0.11,0.26-0.25,0.26h7.71c0.07,0,0.14-0.03,0.18-0.08
			c0.05-0.05,0.07-0.12,0.06-0.2c-0.15-1.56-2.29-1.71-2.63-1.72c-0.68-0.25-0.77-0.48-0.78-0.57c-0.02-0.23,0.33-0.52,0.53-0.64
			c5.89-1.55,8.61-4.98,9.86-7.59c1.41-2.94,1.48-6.05,0.82-7.61c-1.25-2.97-4.21-3.13-4.34-3.13h-1.06
			c0.03,0.16,0.05,0.33,0.08,0.51H93.96z"/>
		<path class="st0" d="M83.35,74.41c0.01-0.01,0.02-0.01,0.04-0.02l0.27,0.43c-0.02,0.02-0.04,0.03-0.07,0.04h0.07
			c0.12-0.17,0.24-0.35,0.33-0.51h-0.6C83.38,74.36,83.36,74.38,83.35,74.41z"/>
		<path class="st0" d="M83.6,74.85c0.02-0.01,0.04-0.03,0.07-0.04l-0.27-0.43c-0.01,0.01-0.02,0.01-0.04,0.02
			c-0.09,0.15-0.17,0.29-0.29,0.45H83.6z"/>
		<path class="st0" d="M80.43,74.85c-0.12-0.17-0.24-0.35-0.33-0.51h-8.12l0.03,0.51H80.43z"/>
		<path class="st0" d="M76.75,92.67c0.19,0.12,0.55,0.41,0.53,0.64c-0.01,0.09-0.1,0.32-0.78,0.57c-0.34,0.01-2.48,0.16-2.63,1.72
			c-0.01,0.07,0.02,0.14,0.06,0.2c0.05,0.05,0.11,0.08,0.18,0.08h7.71c-0.14,0-0.25-0.11-0.25-0.26s0.11-0.26,0.25-0.26h-7.4
			c0.38-0.93,2.09-0.98,2.11-0.98c0.03,0,0.05,0,0.08-0.01c0.74-0.26,1.11-0.6,1.15-1.02c0.05-0.63-0.72-1.09-0.81-1.14
			c-0.02-0.01-0.04-0.02-0.06-0.02c-5.72-1.5-8.36-4.81-9.57-7.33c-1.34-2.8-1.43-5.73-0.81-7.18c0.69-1.63,1.94-2.32,2.84-2.61
			l0.03-0.54c-1.01,0.29-2.52,1.03-3.33,2.95c-0.66,1.56-0.58,4.67,0.83,7.61C68.14,87.69,70.86,91.12,76.75,92.67z"/>
		<path class="st0" d="M80.49,74.85c-0.04-0.03-0.08-0.05-0.08-0.06l0.31-0.4c0,0,0.01,0.01,0.03,0.02
			c-0.02-0.03-0.03-0.05-0.05-0.08h-0.6c0.09,0.16,0.21,0.34,0.33,0.51H80.49z"/>
		<path class="st0" d="M80.75,74.42c-0.01-0.01-0.02-0.02-0.03-0.02l-0.31,0.4c0,0,0.03,0.02,0.08,0.06h0.55
			C80.92,74.7,80.84,74.56,80.75,74.42z"/>
		<path class="st0" d="M82.8,95.63c0-0.14-0.11-0.26-0.25-0.26h-0.72c-0.14,0-0.25,0.11-0.25,0.26s0.11,0.26,0.25,0.26h0.72
			C82.68,95.88,82.8,95.77,82.8,95.63z"/>
		<path class="st0" d="M86.75,77.36c0.45,1.01,2.94,7.3-0.84,12.9h-7.57c-0.55-0.62-4.23-5.13-1.38-12.35
			c0.07-0.19,0.15-0.38,0.23-0.56c0.03,0.01,0.05,0.01,0.08,0.01h3.54c0.01-0.18,0.02-0.35,0.02-0.51h-3.55
			c-0.05,0-0.09,0.01-0.12,0.03c-0.01,0-0.01-0.01-0.02-0.01c-0.12-0.06-0.27,0-0.33,0.13c-0.11,0.24-0.21,0.48-0.3,0.72
			c-0.02,0.05-0.03,0.1-0.05,0.15c0.1,0,0.17,0,0.18,0c0.14,0.01,0.24,0.13,0.23,0.27c-0.01,0.14-0.13,0.26-0.27,0.24
			c-0.01,0-0.13-0.01-0.32,0c-0.15,0.42-0.28,0.84-0.39,1.24c0.06-0.01,0.1-0.03,0.16-0.04c0.15-0.02,0.26,0.08,0.28,0.22
			c0.02,0.14-0.08,0.27-0.22,0.28c-0.13,0.02-0.23,0.06-0.35,0.09c-0.33,1.48-0.41,2.82-0.32,3.98c0.08,0.04,0.16,0.08,0.26,0.11
			c0.13,0.03,0.22,0.17,0.18,0.31c-0.03,0.12-0.13,0.19-0.24,0.19c-0.02,0-0.04,0-0.06-0.01c-0.03-0.01-0.06-0.02-0.09-0.03
			c0.07,0.6,0.18,1.15,0.31,1.64c0.11,0.04,0.19,0.07,0.19,0.07c0.13,0.04,0.2,0.19,0.16,0.32c-0.03,0.09-0.11,0.12-0.19,0.14
			c0.04,0.11,0.07,0.24,0.11,0.35c0.78,2.2,1.95,3.4,2,3.45c0.05,0.05,0.11,0.07,0.17,0.07h7.81c0.08,0,0.16-0.04,0.2-0.11
			c4.4-6.35,0.93-13.6,0.89-13.67c-0.04-0.09-0.13-0.14-0.22-0.14h-3.65c0,0.16,0.01,0.34,0.02,0.51H86.75z"/>
		<path class="st0" d="M81.32,77.36c0.01-0.17,0.02-0.35,0.02-0.51h-0.5c0,0.16-0.01,0.34-0.02,0.51H81.32z"/>
		<path class="st0" d="M82.77,77.36h0.5c-0.01-0.18-0.02-0.35-0.02-0.51h-0.5C82.76,77.02,82.76,77.19,82.77,77.36z"/>
		<path class="st0" d="M78.9,85.15h-1.45c-0.08,0-0.16,0.04-0.21,0.11c-0.05,0.07-0.06,0.16-0.03,0.24l1.29,3.45
			c0.04,0.1,0.13,0.16,0.23,0.16c0.03,0,0.06,0,0.09-0.02c0.13-0.05,0.19-0.2,0.14-0.33l-1.16-3.1h1.09c0.14,0,0.25-0.11,0.25-0.26
			S79.03,85.15,78.9,85.15z"/>
		<path class="st0" d="M81.65,85.15h-1.5c-0.07,0-0.14,0.03-0.18,0.08c-0.05,0.05-0.07,0.12-0.06,0.2l0.34,3.7
			c0.01,0.13,0.12,0.23,0.25,0.23c0.01,0,0.02,0,0.02,0c0.14-0.01,0.24-0.14,0.22-0.28l-0.32-3.42h1.22c0.14,0,0.25-0.11,0.25-0.26
			S81.79,85.15,81.65,85.15z"/>
		<path class="st0" d="M84.61,85.41c0-0.14-0.11-0.26-0.25-0.26h-1.4c-0.13,0-0.23,0.1-0.25,0.23l-0.39,3.7
			c-0.01,0.14,0.08,0.27,0.22,0.28c0.01,0,0.02,0,0.03,0c0.13,0,0.23-0.1,0.25-0.23l0.37-3.48h1.18
			C84.5,85.67,84.61,85.55,84.61,85.41z"/>
		<path class="st0" d="M86.94,85.15H85.6c-0.11,0-0.21,0.08-0.24,0.19l-0.96,3.7c-0.04,0.14,0.04,0.28,0.18,0.31
			c0.02,0.01,0.04,0.01,0.06,0.01c0.11,0,0.21-0.08,0.24-0.19l0.91-3.51h1.15c0.14,0,0.25-0.11,0.25-0.26S87.08,85.15,86.94,85.15z"
			/>
		<path class="st0" d="M91.02,72.43c0.01-0.01,0.02-0.01,0.03-0.02l-0.21-0.42c0.03-0.02,0.08-0.03,0.12-0.05
			c-0.28-0.08-0.38-0.75-0.38-1.05V59.78c0.35,0.49,0.54,1.12,0.55,1.14c0.57,1.52,0.97,2.85,1.25,4.02h0.47h-0.47
			c0.06,0.26,0.12,0.52,0.17,0.77h0.51v0.42h-0.42c0.04,0.2,0.07,0.39,0.1,0.58h0.32v0.42H92.8c0.02,0.15,0.04,0.3,0.05,0.45h0.21
			V68h-0.17c0.01,0.18,0.02,0.35,0.03,0.51h0.14v0.42h-0.13c0,0.18,0,0.35-0.01,0.51h0.27v0.42h-0.29
			c-0.02,0.18-0.04,0.35-0.06,0.51h0.23v0.42h-0.31c-0.16,0.72-0.38,1.16-0.54,1.39c0.1,0.09,0.2,0.18,0.29,0.31l-0.4,0.3
			c-0.05-0.06-0.09-0.12-0.14-0.16c0,0.03,0.01,0.06,0.03,0.09c0.15,0.27,0.29,0.85,0.41,1.61h0.51c-0.12-0.72-0.26-1.32-0.41-1.69
			c0.45-0.56,1.76-2.79,0.14-8.7h-0.48h0.48c-0.26-0.97-0.6-2.03-1.04-3.2c-0.01-0.05-0.38-1.27-1.13-1.8
			c-0.08-0.05-0.17-0.06-0.26-0.01c-0.08,0.04-0.13,0.13-0.13,0.23v11.72c0,0.11,0.01,0.96,0.43,1.36c-0.22,0.3-0.46,0.92-0.57,2.1
			h0.5C90.6,72.73,91.03,72.43,91.02,72.43z M92.2,62.94h-0.37H92.2z"/>
		<path class="st0" d="M93.06,66.12V65.7h-0.51c0.03,0.14,0.06,0.29,0.08,0.42H93.06z"/>
		<path class="st0" d="M93.06,67.12V66.7h-0.32c0.02,0.14,0.04,0.29,0.06,0.42H93.06z"/>
		<path class="st0" d="M93.06,68v-0.42h-0.21c0.02,0.15,0.03,0.29,0.04,0.42H93.06z"/>
		<path class="st0" d="M93.06,68.93v-0.42h-0.14c0.01,0.15,0.01,0.29,0.01,0.42H93.06z"/>
		<path class="st0" d="M93.18,69.87v-0.42h-0.27c-0.01,0.15-0.02,0.29-0.03,0.42H93.18z"/>
		<path class="st0" d="M93.06,70.81v-0.42h-0.23c-0.02,0.15-0.05,0.29-0.08,0.42H93.06z"/>
		<path class="st0" d="M92.05,72.41c-0.07,0.06-0.1,0.15-0.08,0.23c0.05,0.05,0.09,0.1,0.14,0.16l0.4-0.3
			c-0.09-0.13-0.19-0.23-0.29-0.31C92.12,72.34,92.05,72.41,92.05,72.41z"/>
		<path class="st0" d="M91.18,72.17c-0.01-0.11-0.09-0.2-0.2-0.23c0,0-0.01-0.01-0.01-0.01c-0.04,0.02-0.09,0.03-0.12,0.05
			l0.21,0.42C91.14,72.36,91.19,72.27,91.18,72.17z"/>
		<path class="st0" d="M89.9,83.81c0,0.04-0.02,0.94,0.49,1.49c0.25,0.26,0.58,0.4,0.97,0.4c0.1,0,0.21-0.01,0.32-0.03
			c0.02,0,0.04,0,0.06,0c0.3,0,1.31-0.13,1.64-1.81c0.25-1.26,0.05-5.99-0.39-9.01h-0.51c0.42,2.88,0.67,7.61,0.41,8.91
			c-0.25,1.29-0.93,1.39-1.18,1.39c0,0,0,0,0,0c-0.03,0-0.05,0-0.08,0c-0.4,0.07-0.68,0-0.88-0.22c-0.37-0.39-0.35-1.11-0.35-1.13
			v-8.33c0-0.23,0.01-0.43,0.02-0.63h-0.49c-0.01,0.21-0.03,0.39-0.03,0.63V83.81z"/>
		<path class="st0" d="M90.42,74.85c0.01-0.18,0.02-0.35,0.03-0.51h-0.5c-0.01,0.15-0.02,0.34-0.02,0.51H90.42z"/>
		<path class="st0" d="M92.49,74.85H93c-0.03-0.18-0.05-0.35-0.08-0.51H92.4C92.43,74.51,92.46,74.67,92.49,74.85z"/>
		<path class="st0" d="M69.49,85.29c0.29,0.29,0.67,0.42,1.12,0.38c0.03,0,0.06-0.01,0.08-0.02c0.02,0.01,0.05,0.02,0.08,0.02
			c0.06,0.01,0.11,0.01,0.17,0.01c0.38,0,0.7-0.13,0.95-0.39c0.37-0.37,0.52-0.94,0.58-1.42c-0.16-0.42-0.27-0.87-0.27-1.4
			c0-0.54,0.07-1.02,0.18-1.47l-0.38-6.15h-0.5l0.5,8.19c0,0.01,0.09,1.32-0.47,1.88c-0.18,0.19-0.42,0.26-0.73,0.23
			c-0.04,0-0.09,0.01-0.13,0.02c-0.03-0.01-0.07-0.02-0.11-0.02c-0.01,0-0.02,0-0.02,0c-0.3,0.03-0.54-0.05-0.73-0.23
			c-0.55-0.56-0.47-1.87-0.47-1.88l0.5-8.11c-0.15,0.03-0.32,0.08-0.51,0.14l-0.49,7.94C68.87,83.07,68.77,84.56,69.49,85.29z"/>
		<path class="st0" d="M70.27,68.39c0,0-0.01,0.01-0.01,0.01l-0.4-0.3c0.01-0.01,0.03-0.05,0.07-0.09
			c-0.23,0.01-0.42-0.06-0.58-0.22c-0.77-0.8-0.63-3.43-0.51-4.38l0.38-3.6h0.43l0-0.01l0.24,0.01h1.6l0.24-0.01l0,0.01h0.43
			l0.38,3.61c0.12,0.95,0.26,3.58-0.51,4.38c-0.16,0.16-0.34,0.23-0.56,0.22c0.03,0.04,0.05,0.06,0.08,0.1l-0.42,0.27
			c0,0-0.01-0.01-0.01-0.01l0.36,5.96h0.5l-0.36-5.82c0.29-0.03,0.55-0.15,0.76-0.37c1.1-1.14,0.67-4.66,0.65-4.8l-0.4-3.83
			c-0.01-0.13-0.12-0.23-0.25-0.23H69c-0.13,0-0.23,0.1-0.25,0.23l-0.4,3.83c-0.02,0.15-0.45,3.66,0.65,4.8
			c0.22,0.22,0.47,0.35,0.76,0.37l-0.37,6c0.19-0.05,0.36-0.1,0.51-0.12L70.27,68.39z"/>
		<polygon class="st0" points="69.65,59.79 69.65,59.81 69.89,59.81 		"/>
		<polygon class="st0" points="71.73,59.79 71.49,59.81 71.73,59.81 		"/>
		<path class="st0" d="M70.2,68.08c-0.05-0.05-0.13-0.08-0.2-0.07c-0.02,0-0.04,0-0.07,0c-0.04,0.04-0.06,0.08-0.07,0.09l0.4,0.3
			c0,0,0.01-0.01,0.01-0.01l0.01-0.11C70.28,68.21,70.25,68.13,70.2,68.08z"/>
		<path class="st0" d="M71.19,68.08c-0.05,0.05-0.08,0.13-0.08,0.2l0.01,0.1c0,0,0.01,0.01,0.01,0.01l0.42-0.27
			c-0.02-0.04-0.05-0.07-0.08-0.1c-0.03,0-0.05,0-0.08,0C71.32,68,71.24,68.03,71.19,68.08z"/>
		<path class="st0" d="M69.87,74.93l0.03-0.53c-0.15,0.03-0.32,0.07-0.51,0.12l-0.03,0.54C69.55,75.01,69.72,74.96,69.87,74.93z"/>
		<polygon class="st0" points="71.52,74.85 72.01,74.85 71.98,74.34 71.48,74.34 		"/>
		<path class="st2" d="M82.18,109.6C82.18,109.6,82.18,109.6,82.18,109.6c0.12-2.16,6.81-7.04,13.46-8.24
			c1.81-0.33,3.36-0.67,4.65-1.1v-0.21h0.5v0.04c2.99-1.1,4.5-2.77,4.65-5.99c0.19-4.01-3.84-6.22-4.78-6.68l0.32-1.52l4.65,0.1
			c3.6,0.18,5.2-1.49,6.14-2.47c0.11-0.12,0.22-0.23,0.31-0.32c1.86-1.82,3.61-2.01,3.63-2.02c0.11-0.01,0.21-0.1,0.22-0.22
			c0.02-0.12-0.05-0.23-0.15-0.27c-1.54-0.63-3.22-3.93-3.84-6.63c-0.44-1.91-2.92-3.34-3.04-3.41l-4.25-2.18l0.66-3.12
			c8.46-3.09,6.48-14.33,6.46-14.44c-0.02-0.08-0.07-0.15-0.15-0.19c-0.08-0.03-0.16-0.02-0.23,0.02c-2.12,1.43-4.96,2.13-8.68,2.13
			c-0.72,0-1.43-0.03-2.15-0.07h-0.29v-0.02c-2.04-0.14-4.05-0.41-5.87-0.67c-1.09-0.15-2.12-0.29-3.03-0.39
			c-0.38-0.04-0.76-0.06-1.14-0.06c-4.44,0-7.52,2.61-8.04,3.09v0.19h-0.5v-0.21c-1.05-0.86-4.14-3.06-8.14-3.06
			c-0.36,0-0.73,0.02-1.09,0.06c-0.91,0.09-1.94,0.24-3.03,0.39c-1.85,0.26-3.89,0.54-5.96,0.67v0.01h-0.2
			c-0.71,0.04-1.43,0.07-2.15,0.07c-3.73,0-6.57-0.7-8.68-2.13c-0.07-0.05-0.16-0.05-0.24-0.02c-0.08,0.03-0.13,0.11-0.15,0.19
			c-0.02,0.11-1.78,11.32,6.68,14.41l0.51,3.2l-4.32,2.14c-0.11,0.06-2.59,1.49-3.03,3.4c-0.61,2.7-2.3,6.01-3.84,6.63
			c-0.11,0.04-0.17,0.16-0.15,0.27c0.02,0.12,0.11,0.21,0.22,0.22c0.02,0,1.77,0.19,3.63,2.02c0.1,0.1,0.2,0.21,0.32,0.32
			c0.89,0.93,2.37,2.49,5.57,2.49c0.18,0,0.38-0.01,0.57-0.02l4.89-0.1l0.33,1.58c-0.99,0.44-5.21,2.55-5.02,6.63
			c0.15,3.19,1.63,4.86,4.56,5.96v-0.01h0.5v0.19c1.31,0.44,2.88,0.8,4.74,1.13c6.65,1.19,13.34,6.07,13.45,8.23c0,0,0,0,0,0
			L82.18,109.6L82.18,109.6z M81.93,108.73c-1.33-2.7-7.74-6.81-13.62-7.86c-7.01-1.26-9.2-2.84-9.39-6.78
			c-0.17-3.59,3.59-5.6,4.63-6.09L63,85.39l-4.8,0.1c-3.37,0.18-4.82-1.33-5.76-2.32c-0.12-0.12-0.22-0.23-0.33-0.34
			c-1.29-1.27-2.53-1.8-3.26-2.01c1.53-1.15,2.97-4.15,3.54-6.64c0.38-1.69,2.76-3.06,2.77-3.06l4.36-2.16l-0.9-4.25
			c-6.86-2.77-6.33-11.39-6.12-13.32c2.16,1.34,4.99,1.99,8.63,1.99c2.89,0,5.81-0.4,8.37-0.76c1.09-0.15,2.11-0.29,3.01-0.39
			c0.34-0.04,0.69-0.05,1.04-0.05c4.67,0,8.16,3.23,8.19,3.27c0.08,0.08,0.21,0.09,0.3,0.03l0.36-0.24
			c0.03-0.03,3.21-3.05,7.81-3.05c0.36,0,0.73,0.02,1.09,0.06c0.9,0.09,1.93,0.24,3.01,0.39c2.57,0.36,5.48,0.76,8.37,0.76
			c3.64,0,6.47-0.65,8.63-2c0.25,1.92,0.96,10.58-5.9,13.35l-0.9,4.25l4.13,2.12c0.02,0.01,2.4,1.37,2.79,3.07
			c0.57,2.49,2.01,5.49,3.54,6.64c-0.73,0.21-1.97,0.74-3.26,2.01c-0.1,0.1-0.21,0.21-0.33,0.33c-0.89,0.93-2.23,2.34-5.21,2.34
			c-0.18,0-0.36,0-0.56-0.02l-4.56-0.1l-0.54,2.54c1.01,0.51,4.56,2.56,4.39,6.14c-0.19,3.94-2.38,5.53-9.39,6.78
			C89.68,101.92,83.27,106.02,81.93,108.73z"/>
		<path class="st2" d="M62.99,100.05v0.01c0.16,0.06,0.33,0.12,0.5,0.18v-0.19H62.99z"/>
		<path class="st2" d="M63.49,52.8c-0.07,0-0.13,0.01-0.2,0.01h0.2V52.8z"/>
		<path class="st2" d="M100.29,100.05v0.21c0.17-0.06,0.34-0.11,0.5-0.17v-0.04H100.29z"/>
		<path class="st2" d="M100.57,52.82c-0.1-0.01-0.19-0.01-0.29-0.02v0.02H100.57z"/>
		<path class="st2" d="M82.2,54.95v-0.19c-0.04,0.04-0.07,0.07-0.08,0.08l-0.17,0.11c-0.06-0.05-0.15-0.13-0.25-0.21v0.21H82.2z"/>
		<path class="st2" d="M81.93,109.84c0.13,0,0.24-0.1,0.25-0.24v0h-0.5C81.69,109.74,81.8,109.84,81.93,109.84z"/>
		<polygon class="st0" points="100.34,86.52 100.54,85.59 100.54,85.59 		"/>
		<polygon class="st0" points="59.22,65.1 59.22,65.11 59.22,65.1 		"/>
		<polygon class="st0" points="63.55,85.59 63.62,85.89 63.55,85.59 		"/>
		<path class="st0" d="M104.87,65.12l-0.73,3.45c-0.02,0.11,0.03,0.23,0.13,0.28l0.29,0.15l0.9-4.25c-0.15,0.06-0.27,0.13-0.43,0.18
			C104.95,64.96,104.88,65.03,104.87,65.12z"/>
		<path class="st0" d="M100.78,85.39c-0.12,0-0.22,0.08-0.24,0.2l-0.2,0.93l-0.21,1c-0.03,0.12,0.04,0.24,0.15,0.29
			c0.01,0,0.11,0.05,0.27,0.13l0.54-2.54L100.78,85.39C100.78,85.39,100.78,85.39,100.78,85.39z"/>
		<path class="st0" d="M59.78,68.64l-0.56-3.53l0,0c-0.01-0.09-0.08-0.17-0.17-0.2c-0.15-0.05-0.28-0.12-0.43-0.18l0.9,4.25
			l0.11-0.06C59.74,68.86,59.8,68.75,59.78,68.64z"/>
		<path class="st0" d="M63.97,87.58l-0.36-1.69l-0.06-0.31c-0.02-0.12-0.13-0.2-0.24-0.2c0,0,0,0,0,0L63,85.39l0.55,2.6
			c0.16-0.08,0.26-0.12,0.27-0.12C63.94,87.83,64,87.7,63.97,87.58z"/>
		<path class="st0" d="M72.71,82.47c0-1.37,0.37-2.42,1.1-3.12c0.83-0.79,1.93-0.94,2.46-0.97c0.06-0.17,0.11-0.34,0.18-0.51
			c-0.48,0-1.89,0.08-2.97,1.1c-0.54,0.51-0.89,1.2-1.09,2.02l0.12,2.01c0,0.03,0.03,0.4-0.03,0.86c0.81,2.19,3.32,3.05,3.35,3.06
			c0.02,0.01,0.05,0.01,0.07,0.01c0.02,0,0.03-0.03,0.05-0.03c-0.06-0.17-0.11-0.35-0.16-0.54C75.1,86.09,72.71,84.95,72.71,82.47z"
			/>
		<path class="st0" d="M76.59,78.39c0.14,0.03,0.26-0.1,0.27-0.24c0.01-0.14-0.09-0.26-0.23-0.27c-0.01,0-0.09,0-0.18,0
			c-0.07,0.17-0.12,0.34-0.18,0.51C76.46,78.38,76.59,78.38,76.59,78.39z"/>
		<path class="st0" d="M76.14,86.76c0.04-0.13-0.03-0.28-0.16-0.32c0,0-0.08-0.03-0.19-0.07c0.05,0.19,0.11,0.36,0.16,0.54
			C76.03,86.89,76.12,86.85,76.14,86.76z"/>
		<path class="st0" d="M72.51,83.01L72.39,81c-0.11,0.45-0.18,0.93-0.18,1.47c0,0.52,0.12,0.97,0.27,1.4
			C72.54,83.41,72.52,83.04,72.51,83.01z"/>
		<path class="st0" d="M73.77,82.54c0.01,0.07,0.28,1.75,1.71,2.19c-0.02-0.18-0.04-0.37-0.05-0.57c-0.96-0.44-1.17-1.68-1.17-1.68
			c-0.01-0.08-0.15-1.87,1.49-2.3c0.04-0.18,0.08-0.37,0.13-0.55C73.55,80.02,73.77,82.51,73.77,82.54z"/>
		<path class="st0" d="M76.1,80.09c0.14-0.02,0.24-0.14,0.22-0.28c-0.02-0.14-0.13-0.25-0.28-0.22c-0.06,0.01-0.1,0.03-0.16,0.04
			c-0.05,0.19-0.09,0.37-0.13,0.55C75.87,80.15,75.97,80.11,76.1,80.09z"/>
		<path class="st0" d="M75.57,84.76c0.02,0.01,0.04,0.01,0.06,0.01c0.11,0,0.21-0.08,0.24-0.19c0.03-0.14-0.05-0.28-0.18-0.31
			c-0.1-0.02-0.18-0.07-0.26-0.11c0.01,0.19,0.03,0.38,0.05,0.57C75.51,84.74,75.54,84.76,75.57,84.76z"/>
		<path class="st0" d="M43.55,80.84c0,0.09,0.19,9.47,5.03,19.03c4.39,8.66,13.59,19.22,32.54,20.85c0.3-0.1,0.62-0.16,0.95-0.16
			c0.36,0,0.7,0.07,1.02,0.19c19.14-1.55,28.41-12.17,32.82-20.87c4.84-9.56,5.03-18.94,5.03-19.04v-21h-0.5v21
			c0,0.09-0.19,9.35-4.98,18.8c-4.41,8.71-13.76,19.37-33.23,20.67c-19.45-1.3-28.8-11.94-33.22-20.65
			c-4.8-9.45-4.98-18.73-4.98-18.82v-21h-0.5V80.84z"/>
		<path class="st0" d="M82.25,120.81l0.02,0c0.28-0.02,0.55-0.05,0.83-0.07c-0.32-0.12-0.66-0.19-1.02-0.19
			c-0.33,0-0.65,0.06-0.95,0.16c0.37,0.03,0.73,0.07,1.11,0.09L82.25,120.81z"/>
		<rect x="120.45" y="59.23" class="st0" width="0.5" height="0.6"/>
		<rect x="43.55" y="59.23" class="st0" width="0.5" height="0.6"/>
		<rect x="43.55" y="58.72" class="st0" width="0.5" height="0.51"/>
		<rect x="120.45" y="58.72" class="st0" width="0.5" height="0.51"/>
		<path class="st0" d="M96.2,97.93h-0.26l1.31,1.79h0.31l0.07-0.33l-1.19-1.63C96.39,97.85,96.3,97.93,96.2,97.93z"/>
		<path class="st0" d="M96.43,97.75l-0.25-0.34l-0.4,0.31l0.15,0.21h0.26C96.3,97.93,96.39,97.85,96.43,97.75z"/>
		<polygon class="st0" points="97.24,99.71 97.35,99.87 97.75,99.56 97.62,99.38 97.55,99.71 		"/>
		<path class="st0" d="M68.32,97.93c-0.12,0-0.22-0.08-0.24-0.2l-0.02-0.11l-1.54,1.98l0.03,0.12h0.51l1.39-1.79H68.32z"/>
		<path class="st0" d="M68.33,97.26l-0.27,0.35l0.02,0.11c0.02,0.12,0.13,0.2,0.24,0.2h0.12l0.27-0.35L68.33,97.26z"/>
		<polygon class="st0" points="66.51,99.59 66.41,99.72 66.8,100.04 67.05,99.71 66.54,99.71 		"/>
		<polygon class="st0" points="120.79,46.49 120.7,46.51 120.7,46.51 120.7,46.51 120.45,46.57 120.45,58.12 120.95,58.12 
			120.88,46.47 120.79,46.49 		"/>
		<rect x="120.45" y="58.12" class="st0" width="0.5" height="0.6"/>
		<polygon class="st0" points="45.01,40.48 45.01,40.5 45.02,40.5 		"/>
		<path class="st0" d="M44.05,46.31L45,42.68v-2.15l-1.45,5.63l0.48,0.19l-0.48-0.19v11.96h0.5V46.31z M43.71,46.49
			c0.03,0.01,0.06,0.02,0.09,0.02C43.77,46.51,43.74,46.51,43.71,46.49z"/>
		<polygon class="st0" points="45.14,42.16 45.02,40.5 45.01,40.5 45,40.54 45,42.68 		"/>
		<rect x="43.55" y="58.12" class="st0" width="0.5" height="0.6"/>
		<path class="st0" d="M120.6,46.07c0.03-0.04,0.07-0.07,0.1-0.07c0.03,0,0.06,0.48,0.09,0.5l0.09-0.02l-1.36-5.97v0.82L120.6,46.07
			z"/>
		<path class="st0" d="M120.45,46.57v-0.26c0,0,0.07-0.15,0.15-0.24l-1.08-4.75v1.16L120.45,46.57L120.45,46.57z"/>
		<polygon class="st0" points="119.52,42.47 119.52,41.32 119.35,40.58 119.52,41.32 119.52,40.5 119.1,40.64 		"/>
		<path class="st0" d="M120.79,46.49c-0.03-0.01-0.06-0.5-0.09-0.5c-0.03,0-0.07,0.03-0.1,0.07l0.1,0.45L120.79,46.49z"/>
		<path class="st0" d="M120.45,46.57l0.25-0.06l-0.1-0.45c-0.08,0.09-0.15,0.24-0.15,0.24V46.57z"/>
	</g>
</g>
</svg>
